<svg width="2001" height="1302" viewBox="0 0 2001 1302" fill="none" xmlns="http://www.w3.org/2000/svg">
<rect width="2001" height="1302" rx="30" fill="#FFF3E6"/>
<rect x="219" y="188" width="428" height="926" rx="30" fill="#FDBDEA"/>
<path d="M407.861 432H405.159L386.768 404.622V432H384.043V400.008H386.768L405.181 427.408V400.008H407.861V432ZM413.926 419.761C413.926 417.476 414.365 415.418 415.244 413.587C416.138 411.756 417.39 410.335 419.001 409.324C420.627 408.299 422.466 407.786 424.517 407.786C427.681 407.786 430.244 408.899 432.207 411.126C434.17 413.338 435.151 416.275 435.151 419.937V420.486C435.151 422.786 434.705 424.859 433.811 426.705C432.932 428.536 431.687 429.949 430.076 430.945C428.464 431.941 426.626 432.439 424.561 432.439C421.411 432.439 418.848 431.333 416.87 429.122C414.907 426.895 413.926 423.951 413.926 420.289V419.761ZM416.562 420.486C416.562 423.328 417.295 425.665 418.76 427.496C420.239 429.312 422.173 430.22 424.561 430.22C426.934 430.22 428.853 429.312 430.317 427.496C431.797 425.665 432.537 423.255 432.537 420.267V419.761C432.537 417.945 432.2 416.282 431.526 414.773C430.852 413.265 429.907 412.1 428.691 411.28C427.476 410.445 426.084 410.027 424.517 410.027C422.173 410.027 420.261 410.95 418.782 412.796C417.302 414.627 416.562 417.029 416.562 420.003V420.486ZM459.717 420.354C459.717 424.061 458.896 427.005 457.256 429.188C455.615 431.355 453.418 432.439 450.664 432.439C447.412 432.439 444.922 431.297 443.193 429.012V441.141H440.579V408.226H443.018L443.149 411.587C444.863 409.053 447.346 407.786 450.598 407.786C453.44 407.786 455.667 408.863 457.278 411.016C458.904 413.169 459.717 416.158 459.717 419.981V420.354ZM457.08 419.893C457.08 416.861 456.458 414.466 455.212 412.708C453.967 410.95 452.231 410.071 450.005 410.071C448.394 410.071 447.009 410.459 445.852 411.236C444.695 412.012 443.809 413.14 443.193 414.62V426.023C443.823 427.386 444.724 428.426 445.896 429.144C447.068 429.861 448.452 430.22 450.049 430.22C452.261 430.22 453.982 429.341 455.212 427.583C456.458 425.811 457.08 423.248 457.08 419.893ZM474.768 432.439C472.747 432.439 470.916 431.941 469.275 430.945C467.649 429.949 466.382 428.565 465.474 426.792C464.565 425.005 464.111 423.006 464.111 420.794V419.849C464.111 417.564 464.551 415.506 465.43 413.675C466.323 411.844 467.561 410.408 469.143 409.368C470.725 408.313 472.439 407.786 474.285 407.786C477.17 407.786 479.456 408.775 481.14 410.752C482.839 412.715 483.689 415.403 483.689 418.816V420.289H466.726V420.794C466.726 423.489 467.495 425.738 469.033 427.54C470.586 429.327 472.534 430.22 474.878 430.22C476.284 430.22 477.522 429.964 478.591 429.451C479.675 428.938 480.657 428.118 481.536 426.99L483.184 428.243C481.25 431.041 478.445 432.439 474.768 432.439ZM474.285 410.027C472.307 410.027 470.637 410.752 469.275 412.203C467.927 413.653 467.107 415.601 466.814 418.047H481.074V417.762C481.001 415.477 480.349 413.616 479.119 412.181C477.888 410.745 476.277 410.027 474.285 410.027Z" fill="black"/>
<path d="M370.927 318H364.335V304.289H351.481V318H344.89V286.008H351.481V298.972H364.335V286.008H370.927V318ZM375.3 305.893C375.3 303.535 375.754 301.433 376.662 299.587C377.57 297.741 378.874 296.313 380.573 295.302C382.287 294.292 384.272 293.786 386.528 293.786C389.736 293.786 392.351 294.768 394.372 296.73C396.408 298.693 397.543 301.359 397.778 304.729L397.822 306.354C397.822 310.002 396.804 312.932 394.768 315.144C392.731 317.341 390 318.439 386.572 318.439C383.144 318.439 380.405 317.341 378.354 315.144C376.318 312.946 375.3 309.958 375.3 306.179V305.893ZM381.65 306.354C381.65 308.61 382.075 310.339 382.924 311.54C383.774 312.727 384.99 313.32 386.572 313.32C388.11 313.32 389.311 312.734 390.175 311.562C391.04 310.375 391.472 308.486 391.472 305.893C391.472 303.681 391.04 301.967 390.175 300.751C389.311 299.536 388.095 298.928 386.528 298.928C384.975 298.928 383.774 299.536 382.924 300.751C382.075 301.953 381.65 303.82 381.65 306.354ZM422.409 309.365L425.529 294.226H431.66L425.595 318H420.278L415.773 303.037L411.269 318H405.974L399.909 294.226H406.04L409.138 309.343L413.488 294.226H418.081L422.409 309.365ZM466.706 309.365L469.826 294.226H475.957L469.892 318H464.575L460.07 303.037L455.566 318H450.271L444.206 294.226H450.336L453.435 309.343L457.785 294.226H462.377L466.706 309.365ZM492.897 318C492.604 317.429 492.392 316.718 492.26 315.869C490.722 317.583 488.723 318.439 486.262 318.439C483.933 318.439 481.999 317.766 480.461 316.418C478.938 315.07 478.176 313.371 478.176 311.32C478.176 308.801 479.106 306.867 480.966 305.52C482.841 304.172 485.544 303.491 489.074 303.476H491.997V302.114C491.997 301.015 491.711 300.136 491.14 299.477C490.583 298.818 489.697 298.488 488.481 298.488C487.412 298.488 486.569 298.745 485.954 299.257C485.354 299.77 485.053 300.473 485.053 301.367H478.703C478.703 299.99 479.128 298.715 479.978 297.543C480.827 296.372 482.028 295.456 483.581 294.797C485.134 294.123 486.877 293.786 488.811 293.786C491.74 293.786 494.062 294.526 495.776 296.005C497.504 297.47 498.369 299.536 498.369 302.202V312.507C498.383 314.763 498.698 316.469 499.313 317.626V318H492.897ZM487.646 313.583C488.583 313.583 489.448 313.378 490.239 312.968C491.03 312.543 491.616 311.979 491.997 311.276V307.189H489.624C486.445 307.189 484.753 308.288 484.548 310.485L484.526 310.859C484.526 311.65 484.804 312.302 485.361 312.814C485.917 313.327 486.679 313.583 487.646 313.583ZM516.123 311.43C516.123 310.654 515.734 310.046 514.958 309.606C514.196 309.152 512.966 308.75 511.267 308.398C505.612 307.211 502.785 304.809 502.785 301.191C502.785 299.082 503.657 297.324 505.4 295.917C507.158 294.497 509.45 293.786 512.277 293.786C515.295 293.786 517.705 294.497 519.506 295.917C521.323 297.338 522.231 299.184 522.231 301.455H515.881C515.881 300.546 515.588 299.799 515.002 299.213C514.416 298.613 513.5 298.312 512.255 298.312C511.186 298.312 510.358 298.554 509.772 299.038C509.187 299.521 508.894 300.136 508.894 300.883C508.894 301.586 509.223 302.158 509.882 302.597C510.556 303.022 511.684 303.396 513.266 303.718C514.848 304.025 516.181 304.377 517.265 304.772C520.62 306.003 522.297 308.134 522.297 311.167C522.297 313.334 521.367 315.092 519.506 316.44C517.646 317.773 515.244 318.439 512.299 318.439C510.307 318.439 508.535 318.088 506.982 317.385C505.444 316.667 504.235 315.693 503.356 314.462C502.478 313.217 502.038 311.877 502.038 310.441H508.059C508.117 311.569 508.535 312.434 509.311 313.034C510.087 313.635 511.127 313.935 512.431 313.935C513.647 313.935 514.562 313.708 515.178 313.254C515.808 312.785 516.123 312.177 516.123 311.43ZM269.545 362.013L273.94 347.226H280.751L271.193 374.691L270.666 375.944C269.245 379.049 266.901 380.602 263.635 380.602C262.712 380.602 261.774 380.463 260.822 380.185V375.373L261.789 375.395C262.99 375.395 263.884 375.211 264.47 374.845C265.07 374.479 265.539 373.871 265.876 373.021L266.623 371.066L258.295 347.226H265.129L269.545 362.013ZM281.916 358.893C281.916 356.535 282.37 354.433 283.278 352.587C284.187 350.741 285.49 349.313 287.189 348.302C288.903 347.292 290.888 346.786 293.144 346.786C296.352 346.786 298.967 347.768 300.988 349.73C303.024 351.693 304.16 354.359 304.394 357.729L304.438 359.354C304.438 363.002 303.42 365.932 301.384 368.144C299.348 370.341 296.616 371.439 293.188 371.439C289.76 371.439 287.021 370.341 284.97 368.144C282.934 365.946 281.916 362.958 281.916 359.179V358.893ZM288.266 359.354C288.266 361.61 288.691 363.339 289.541 364.54C290.39 365.727 291.606 366.32 293.188 366.32C294.726 366.32 295.927 365.734 296.792 364.562C297.656 363.375 298.088 361.486 298.088 358.893C298.088 356.681 297.656 354.967 296.792 353.751C295.927 352.536 294.711 351.928 293.144 351.928C291.591 351.928 290.39 352.536 289.541 353.751C288.691 354.953 288.266 356.82 288.266 359.354ZM322.587 368.583C321.02 370.487 318.852 371.439 316.083 371.439C313.535 371.439 311.586 370.707 310.239 369.242C308.906 367.777 308.225 365.631 308.195 362.804V347.226H314.545V362.584C314.545 365.06 315.673 366.298 317.929 366.298C320.083 366.298 321.562 365.551 322.368 364.057V347.226H328.74V371H322.763L322.587 368.583ZM346.889 353.18C346.025 353.063 345.263 353.004 344.604 353.004C342.202 353.004 340.627 353.817 339.88 355.443V371H333.53V347.226H339.528L339.704 350.06C340.979 347.877 342.744 346.786 345 346.786C345.703 346.786 346.362 346.881 346.977 347.072L346.889 353.18ZM374.948 371C374.655 370.429 374.443 369.718 374.311 368.869C372.773 370.583 370.773 371.439 368.312 371.439C365.983 371.439 364.05 370.766 362.512 369.418C360.988 368.07 360.227 366.371 360.227 364.32C360.227 361.801 361.157 359.867 363.017 358.52C364.892 357.172 367.595 356.491 371.125 356.476H374.047V355.114C374.047 354.015 373.762 353.136 373.19 352.477C372.634 351.818 371.748 351.488 370.532 351.488C369.462 351.488 368.62 351.745 368.005 352.257C367.404 352.77 367.104 353.473 367.104 354.367H360.754C360.754 352.99 361.179 351.715 362.028 350.543C362.878 349.372 364.079 348.456 365.632 347.797C367.185 347.123 368.928 346.786 370.861 346.786C373.791 346.786 376.113 347.526 377.827 349.005C379.555 350.47 380.419 352.536 380.419 355.202V365.507C380.434 367.763 380.749 369.469 381.364 370.626V371H374.948ZM369.697 366.583C370.634 366.583 371.499 366.378 372.29 365.968C373.081 365.543 373.667 364.979 374.047 364.276V360.189H371.674C368.496 360.189 366.804 361.288 366.599 363.485L366.577 363.859C366.577 364.65 366.855 365.302 367.412 365.814C367.968 366.327 368.73 366.583 369.697 366.583ZM392.9 341.381V347.226H396.965V351.884H392.9V363.749C392.9 364.628 393.068 365.258 393.405 365.639C393.742 366.02 394.387 366.21 395.339 366.21C396.042 366.21 396.665 366.159 397.207 366.056V370.868C395.961 371.249 394.68 371.439 393.361 371.439C388.908 371.439 386.638 369.191 386.55 364.694V351.884H383.078V347.226H386.55V341.381H392.9ZM408.105 341.381V347.226H412.17V351.884H408.105V363.749C408.105 364.628 408.273 365.258 408.61 365.639C408.947 366.02 409.592 366.21 410.544 366.21C411.247 366.21 411.87 366.159 412.412 366.056V370.868C411.167 371.249 409.885 371.439 408.566 371.439C404.113 371.439 401.843 369.191 401.755 364.694V351.884H398.283V347.226H401.755V341.381H408.105ZM426.65 371.439C423.164 371.439 420.322 370.37 418.125 368.231C415.942 366.093 414.851 363.244 414.851 359.684V359.069C414.851 356.681 415.312 354.55 416.235 352.675C417.158 350.785 418.461 349.335 420.146 348.324C421.845 347.299 423.779 346.786 425.947 346.786C429.199 346.786 431.755 347.812 433.615 349.862C435.49 351.913 436.428 354.821 436.428 358.585V361.178H421.289C421.494 362.731 422.109 363.976 423.134 364.914C424.174 365.851 425.485 366.32 427.067 366.32C429.514 366.32 431.425 365.434 432.802 363.661L435.922 367.155C434.97 368.502 433.681 369.557 432.055 370.319C430.429 371.066 428.627 371.439 426.65 371.439ZM425.925 351.928C424.665 351.928 423.64 352.353 422.849 353.202C422.072 354.052 421.574 355.268 421.354 356.85H430.188V356.344C430.158 354.938 429.777 353.854 429.045 353.092C428.312 352.316 427.272 351.928 425.925 351.928ZM445.898 347.226L446.096 349.972C447.795 347.848 450.073 346.786 452.929 346.786C455.449 346.786 457.324 347.526 458.554 349.005C459.785 350.485 460.415 352.697 460.444 355.641V371H454.094V355.795C454.094 354.447 453.801 353.473 453.215 352.873C452.629 352.257 451.655 351.95 450.292 351.95C448.505 351.95 447.165 352.711 446.271 354.235V371H439.921V347.226H445.898ZM464.289 358.937C464.289 355.231 465.117 352.279 466.772 350.082C468.442 347.885 470.72 346.786 473.605 346.786C475.92 346.786 477.832 347.65 479.34 349.379V337.25H485.712V371H479.978L479.67 368.473C478.088 370.451 476.052 371.439 473.562 371.439C470.764 371.439 468.515 370.341 466.816 368.144C465.131 365.932 464.289 362.863 464.289 358.937ZM470.639 359.398C470.639 361.625 471.027 363.332 471.804 364.518C472.58 365.705 473.708 366.298 475.188 366.298C477.15 366.298 478.535 365.47 479.34 363.815V354.433C478.549 352.777 477.18 351.95 475.231 351.95C472.17 351.95 470.639 354.433 470.639 359.398ZM504.411 371C504.118 370.429 503.906 369.718 503.774 368.869C502.236 370.583 500.236 371.439 497.775 371.439C495.446 371.439 493.513 370.766 491.975 369.418C490.451 368.07 489.689 366.371 489.689 364.32C489.689 361.801 490.62 359.867 492.48 358.52C494.355 357.172 497.058 356.491 500.588 356.476H503.51V355.114C503.51 354.015 503.225 353.136 502.653 352.477C502.097 351.818 501.21 351.488 499.995 351.488C498.925 351.488 498.083 351.745 497.468 352.257C496.867 352.77 496.567 353.473 496.567 354.367H490.217C490.217 352.99 490.642 351.715 491.491 350.543C492.341 349.372 493.542 348.456 495.095 347.797C496.647 347.123 498.391 346.786 500.324 346.786C503.254 346.786 505.576 347.526 507.29 349.005C509.018 350.47 509.882 352.536 509.882 355.202V365.507C509.897 367.763 510.212 369.469 510.827 370.626V371H504.411ZM499.16 366.583C500.097 366.583 500.961 366.378 501.752 365.968C502.543 365.543 503.129 364.979 503.51 364.276V360.189H501.137C497.958 360.189 496.267 361.288 496.062 363.485L496.04 363.859C496.04 364.65 496.318 365.302 496.875 365.814C497.431 366.327 498.193 366.583 499.16 366.583ZM520.605 347.226L520.803 349.972C522.502 347.848 524.78 346.786 527.636 346.786C530.156 346.786 532.031 347.526 533.261 349.005C534.492 350.485 535.122 352.697 535.151 355.641V371H528.801V355.795C528.801 354.447 528.508 353.473 527.922 352.873C527.336 352.257 526.362 351.95 525 351.95C523.212 351.95 521.872 352.711 520.979 354.235V371H514.628V347.226H520.605ZM549.873 366.32C551.044 366.32 551.997 365.998 552.729 365.353C553.461 364.708 553.842 363.852 553.872 362.782H559.826C559.812 364.394 559.372 365.873 558.508 367.221C557.644 368.554 556.457 369.594 554.948 370.341C553.454 371.073 551.799 371.439 549.982 371.439C546.584 371.439 543.903 370.363 541.94 368.209C539.978 366.042 538.996 363.053 538.996 359.245V358.827C538.996 355.165 539.97 352.243 541.918 350.06C543.867 347.877 546.54 346.786 549.938 346.786C552.912 346.786 555.292 347.636 557.08 349.335C558.881 351.02 559.797 353.268 559.826 356.081H553.872C553.842 354.85 553.461 353.854 552.729 353.092C551.997 352.316 551.03 351.928 549.829 351.928C548.349 351.928 547.229 352.47 546.467 353.554C545.72 354.623 545.346 356.366 545.346 358.783V359.442C545.346 361.889 545.72 363.646 546.467 364.716C547.214 365.785 548.349 366.32 549.873 366.32ZM574.394 371.439C570.908 371.439 568.066 370.37 565.869 368.231C563.686 366.093 562.595 363.244 562.595 359.684V359.069C562.595 356.681 563.056 354.55 563.979 352.675C564.902 350.785 566.206 349.335 567.89 348.324C569.589 347.299 571.523 346.786 573.691 346.786C576.943 346.786 579.499 347.812 581.359 349.862C583.234 351.913 584.172 354.821 584.172 358.585V361.178H569.033C569.238 362.731 569.853 363.976 570.878 364.914C571.918 365.851 573.229 366.32 574.812 366.32C577.258 366.32 579.169 365.434 580.546 363.661L583.667 367.155C582.714 368.502 581.425 369.557 579.799 370.319C578.173 371.066 576.372 371.439 574.394 371.439ZM573.669 351.928C572.409 351.928 571.384 352.353 570.593 353.202C569.816 354.052 569.318 355.268 569.099 356.85H577.932V356.344C577.902 354.938 577.521 353.854 576.789 353.092C576.057 352.316 575.017 351.928 573.669 351.928ZM592.983 361.178C592.983 359.127 593.232 357.494 593.73 356.278C594.228 355.062 595.136 353.869 596.455 352.697C597.788 351.51 598.674 350.551 599.113 349.818C599.553 349.071 599.772 348.288 599.772 347.467C599.772 344.992 598.63 343.754 596.345 343.754C595.261 343.754 594.389 344.091 593.73 344.765C593.085 345.424 592.749 346.339 592.719 347.511H586.347C586.376 344.713 587.277 342.523 589.05 340.941C590.837 339.359 593.269 338.568 596.345 338.568C599.45 338.568 601.86 339.323 603.574 340.832C605.288 342.326 606.145 344.442 606.145 347.182C606.145 348.427 605.866 349.606 605.31 350.719C604.753 351.818 603.779 353.041 602.387 354.389L600.607 356.081C599.494 357.15 598.857 358.402 598.696 359.838L598.608 361.178H592.983ZM592.346 367.924C592.346 366.942 592.675 366.137 593.334 365.507C594.008 364.862 594.865 364.54 595.905 364.54C596.945 364.54 597.795 364.862 598.454 365.507C599.128 366.137 599.465 366.942 599.465 367.924C599.465 368.891 599.135 369.689 598.476 370.319C597.832 370.949 596.975 371.264 595.905 371.264C594.836 371.264 593.972 370.949 593.312 370.319C592.668 369.689 592.346 368.891 592.346 367.924Z" fill="black"/>
<rect x="248" y="1007" width="371" height="68" rx="14" fill="black"/>
<path d="M401.422 1052V1030.67H407.721C409.605 1030.67 411.275 1031.09 412.73 1031.93C414.195 1032.77 415.328 1033.96 416.129 1035.51C416.93 1037.05 417.33 1038.82 417.33 1040.81V1041.88C417.33 1043.9 416.925 1045.68 416.114 1047.21C415.313 1048.74 414.166 1049.92 412.672 1050.75C411.188 1051.58 409.483 1052 407.56 1052H401.422ZM405.128 1033.66V1049.04H407.545C409.488 1049.04 410.978 1048.44 412.013 1047.22C413.058 1046 413.59 1044.26 413.609 1041.98V1040.79C413.609 1038.48 413.106 1036.71 412.101 1035.49C411.095 1034.27 409.635 1033.66 407.721 1033.66H405.128ZM420.011 1043.93C420.011 1042.38 420.318 1040.98 420.934 1039.74C421.549 1038.49 422.413 1037.53 423.526 1036.87C424.64 1036.19 425.919 1035.86 427.364 1035.86C429.503 1035.86 431.236 1036.55 432.564 1037.92C433.902 1039.3 434.625 1041.13 434.732 1043.4L434.747 1044.24C434.747 1045.8 434.444 1047.2 433.839 1048.43C433.243 1049.66 432.384 1050.61 431.261 1051.28C430.147 1051.96 428.858 1052.29 427.394 1052.29C425.157 1052.29 423.365 1051.55 422.018 1050.07C420.68 1048.57 420.011 1046.58 420.011 1044.1V1043.93ZM423.57 1044.24C423.57 1045.87 423.907 1047.15 424.581 1048.07C425.255 1048.99 426.192 1049.45 427.394 1049.45C428.595 1049.45 429.527 1048.98 430.191 1048.04C430.865 1047.11 431.202 1045.74 431.202 1043.93C431.202 1042.33 430.855 1041.06 430.162 1040.12C429.479 1039.18 428.546 1038.71 427.364 1038.71C426.202 1038.71 425.279 1039.18 424.596 1040.11C423.912 1041.02 423.57 1042.4 423.57 1044.24ZM441.061 1036.15L441.163 1037.98C442.335 1036.57 443.873 1035.86 445.777 1035.86C449.078 1035.86 450.758 1037.75 450.816 1041.53V1052H447.257V1041.73C447.257 1040.73 447.037 1039.98 446.598 1039.5C446.168 1039.02 445.46 1038.77 444.474 1038.77C443.038 1038.77 441.969 1039.42 441.266 1040.72V1052H437.706V1036.15H441.061ZM461.437 1052.29C459.181 1052.29 457.35 1051.58 455.943 1050.17C454.547 1048.74 453.849 1046.85 453.849 1044.49V1044.05C453.849 1042.46 454.151 1041.05 454.757 1039.81C455.372 1038.56 456.231 1037.59 457.335 1036.9C458.438 1036.2 459.669 1035.86 461.026 1035.86C463.185 1035.86 464.85 1036.55 466.021 1037.92C467.203 1039.3 467.794 1041.25 467.794 1043.77V1045.2H457.438C457.545 1046.51 457.979 1047.55 458.741 1048.31C459.513 1049.07 460.479 1049.45 461.642 1049.45C463.272 1049.45 464.601 1048.79 465.626 1047.47L467.545 1049.3C466.91 1050.25 466.061 1050.99 464.996 1051.52C463.941 1052.03 462.755 1052.29 461.437 1052.29ZM461.012 1038.71C460.035 1038.71 459.244 1039.06 458.639 1039.74C458.043 1040.42 457.662 1041.38 457.496 1042.6H464.278V1042.33C464.2 1041.14 463.883 1040.24 463.326 1039.64C462.77 1039.02 461.998 1038.71 461.012 1038.71Z" fill="white"/>
<path d="M284 911H583" stroke="#FF9BE1" stroke-opacity="0.45" stroke-width="4" stroke-linecap="round"/>
<circle cx="312.5" cy="912.5" r="8.5" fill="black"/>
<rect x="284" y="884" width="57" height="57" rx="14" stroke="white" stroke-width="4"/>
<path d="M382.5 702.391C391 687.891 397 678.891 412 684.391C423 685.792 425.5 651.891 470.5 693.39" stroke="black" stroke-width="3" stroke-linecap="round" stroke-linejoin="round"/>
<path d="M449.759 567.289C465.25 569.132 488.469 562.159 498.142 558.442C497.171 572.257 494.362 600.389 490.901 602.394C475.959 609.479 457.247 581.943 449.759 567.289Z" fill="white" stroke="black" stroke-width="4" stroke-linejoin="round"/>
<path d="M479 585.391C479 587.876 476.985 589.891 474.5 589.891C472.015 589.891 470 587.876 470 585.391C470 582.905 472.015 580.891 474.5 580.891C476.985 580.891 479 582.905 479 585.391Z" fill="black"/>
<path d="M409 569.891C393.4 569.891 371.167 560.224 362 555.391C361.333 569.224 360.8 597.491 364 599.891C378 608.691 399.833 583.557 409 569.891Z" fill="white" stroke="black" stroke-width="4" stroke-linejoin="round"/>
<path d="M376 584.891C376 587.652 373.761 589.891 371 589.891C368.239 589.891 366 587.652 366 584.891C366 582.129 368.239 579.891 371 579.891C373.761 579.891 376 582.129 376 584.891Z" fill="black"/>
<path d="M278 231.817L275.986 229.803L268 237.789L260.014 229.803L258 231.817L265.986 239.803L258 247.789L260.014 249.803L268 241.817L275.986 249.803L278 247.789L270.014 239.803L278 231.817Z" fill="black"/>
<path fill-rule="evenodd" clip-rule="evenodd" d="M302 833C302 831.343 300.657 830 299 830H285C283.343 830 282 831.343 282 833V843.515C282 844.887 283.113 846 284.485 846C284.802 846 285.033 846.299 284.955 846.606L284.893 846.844C284.251 849.34 287.164 851.212 289.168 849.59L293.329 846.223C293.507 846.079 293.729 846 293.958 846H299C300.657 846 302 844.657 302 843V833ZM299 832C299.552 832 300 832.448 300 833V843C300 843.552 299.552 844 299 844H293.958C293.271 844 292.605 844.236 292.071 844.668L287.91 848.035C287.404 848.445 286.668 847.972 286.83 847.342L286.892 847.104C287.296 845.531 286.108 844 284.485 844C284.217 844 284 843.783 284 843.515V833C284 832.448 284.448 832 285 832H299Z" fill="#05060F"/>
<path d="M316.75 843.51H311.98L311.065 846H309.955L313.78 835.65H314.965L318.775 846H317.665L316.75 843.51ZM316.435 842.64L314.365 836.97L312.295 842.64H316.435ZM319.98 841.89C319.98 841.05 320.15 840.315 320.49 839.685C320.83 839.045 321.295 838.555 321.885 838.215C322.485 837.865 323.16 837.69 323.91 837.69C324.63 837.69 325.28 837.865 325.86 838.215C326.44 838.565 326.865 839.02 327.135 839.58V834.9H328.185V846H327.135V844.17C326.885 844.74 326.475 845.21 325.905 845.58C325.335 845.94 324.665 846.12 323.895 846.12C323.145 846.12 322.47 845.945 321.87 845.595C321.28 845.245 320.815 844.75 320.475 844.11C320.145 843.47 319.98 842.73 319.98 841.89ZM327.135 841.905C327.135 841.245 327 840.665 326.73 840.165C326.46 839.665 326.09 839.28 325.62 839.01C325.16 838.74 324.65 838.605 324.09 838.605C323.51 838.605 322.99 838.735 322.53 838.995C322.07 839.255 321.705 839.635 321.435 840.135C321.175 840.625 321.045 841.21 321.045 841.89C321.045 842.56 321.175 843.15 321.435 843.66C321.705 844.16 322.07 844.545 322.53 844.815C322.99 845.075 323.51 845.205 324.09 845.205C324.65 845.205 325.16 845.07 325.62 844.8C326.09 844.53 326.46 844.145 326.73 843.645C327 843.145 327.135 842.565 327.135 841.905ZM330.102 841.89C330.102 841.05 330.272 840.315 330.612 839.685C330.952 839.045 331.417 838.555 332.007 838.215C332.607 837.865 333.282 837.69 334.032 837.69C334.752 837.69 335.402 837.865 335.982 838.215C336.562 838.565 336.987 839.02 337.257 839.58V834.9H338.307V846H337.257V844.17C337.007 844.74 336.597 845.21 336.027 845.58C335.457 845.94 334.787 846.12 334.017 846.12C333.267 846.12 332.592 845.945 331.992 845.595C331.402 845.245 330.937 844.75 330.597 844.11C330.267 843.47 330.102 842.73 330.102 841.89ZM337.257 841.905C337.257 841.245 337.122 840.665 336.852 840.165C336.582 839.665 336.212 839.28 335.742 839.01C335.282 838.74 334.772 838.605 334.212 838.605C333.632 838.605 333.112 838.735 332.652 838.995C332.192 839.255 331.827 839.635 331.557 840.135C331.297 840.625 331.167 841.21 331.167 841.89C331.167 842.56 331.297 843.15 331.557 843.66C331.827 844.16 332.192 844.545 332.652 844.815C333.112 845.075 333.632 845.205 334.212 845.205C334.772 845.205 335.282 845.07 335.742 844.8C336.212 844.53 336.582 844.145 336.852 843.645C337.122 843.145 337.257 842.565 337.257 841.905ZM344.34 841.89C344.34 841.05 344.505 840.315 344.835 839.685C345.175 839.045 345.64 838.555 346.23 838.215C346.83 837.865 347.505 837.69 348.255 837.69C349.035 837.69 349.705 837.87 350.265 838.23C350.835 838.59 351.245 839.05 351.495 839.61V837.81H352.545V846H351.495V844.185C351.235 844.745 350.82 845.21 350.25 845.58C349.69 845.94 349.02 846.12 348.24 846.12C347.5 846.12 346.83 845.945 346.23 845.595C345.64 845.245 345.175 844.75 344.835 844.11C344.505 843.47 344.34 842.73 344.34 841.89ZM351.495 841.905C351.495 841.245 351.36 840.665 351.09 840.165C350.82 839.665 350.45 839.28 349.98 839.01C349.52 838.74 349.01 838.605 348.45 838.605C347.87 838.605 347.35 838.735 346.89 838.995C346.43 839.255 346.065 839.635 345.795 840.135C345.535 840.625 345.405 841.21 345.405 841.89C345.405 842.56 345.535 843.15 345.795 843.66C346.065 844.16 346.43 844.545 346.89 844.815C347.35 845.075 347.87 845.205 348.45 845.205C349.01 845.205 349.52 845.07 349.98 844.8C350.45 844.53 350.82 844.145 351.09 843.645C351.36 843.145 351.495 842.565 351.495 841.905ZM358.578 841.905C358.578 841.055 358.748 840.315 359.088 839.685C359.428 839.045 359.898 838.555 360.498 838.215C361.098 837.865 361.783 837.69 362.553 837.69C363.563 837.69 364.393 837.94 365.043 838.44C365.703 838.94 366.128 839.62 366.318 840.48H365.193C365.053 839.89 364.748 839.43 364.278 839.1C363.818 838.76 363.243 838.59 362.553 838.59C362.003 838.59 361.508 838.715 361.068 838.965C360.628 839.215 360.278 839.59 360.018 840.09C359.768 840.58 359.643 841.185 359.643 841.905C359.643 842.625 359.768 843.235 360.018 843.735C360.278 844.235 360.628 844.61 361.068 844.86C361.508 845.11 362.003 845.235 362.553 845.235C363.243 845.235 363.818 845.07 364.278 844.74C364.748 844.4 365.053 843.93 365.193 843.33H366.318C366.128 844.17 365.703 844.845 365.043 845.355C364.383 845.865 363.553 846.12 362.553 846.12C361.783 846.12 361.098 845.95 360.498 845.61C359.898 845.26 359.428 844.77 359.088 844.14C358.748 843.5 358.578 842.755 358.578 841.905ZM371.843 846.12C371.073 846.12 370.378 845.95 369.758 845.61C369.148 845.26 368.663 844.77 368.303 844.14C367.953 843.5 367.778 842.755 367.778 841.905C367.778 841.055 367.958 840.315 368.318 839.685C368.678 839.045 369.168 838.555 369.788 838.215C370.408 837.865 371.103 837.69 371.873 837.69C372.643 837.69 373.338 837.865 373.958 838.215C374.588 838.555 375.078 839.045 375.428 839.685C375.788 840.315 375.968 841.055 375.968 841.905C375.968 842.745 375.788 843.485 375.428 844.125C375.068 844.765 374.573 845.26 373.943 845.61C373.313 845.95 372.613 846.12 371.843 846.12ZM371.843 845.205C372.383 845.205 372.883 845.085 373.343 844.845C373.803 844.595 374.173 844.225 374.453 843.735C374.743 843.235 374.888 842.625 374.888 841.905C374.888 841.185 374.748 840.58 374.468 840.09C374.188 839.59 373.818 839.22 373.358 838.98C372.898 838.73 372.398 838.605 371.858 838.605C371.318 838.605 370.818 838.73 370.358 838.98C369.898 839.22 369.528 839.59 369.248 840.09C368.978 840.58 368.843 841.185 368.843 841.905C368.843 842.625 368.978 843.235 369.248 843.735C369.528 844.225 369.893 844.595 370.343 844.845C370.803 845.085 371.303 845.205 371.843 845.205ZM387.632 837.66C388.592 837.66 389.372 837.965 389.972 838.575C390.582 839.175 390.887 840.05 390.887 841.2V846H389.852V841.32C389.852 840.43 389.637 839.75 389.207 839.28C388.777 838.81 388.192 838.575 387.452 838.575C386.682 838.575 386.067 838.83 385.607 839.34C385.147 839.85 384.917 840.59 384.917 841.56V846H383.882V841.32C383.882 840.43 383.667 839.75 383.237 839.28C382.807 838.81 382.217 838.575 381.467 838.575C380.697 838.575 380.082 838.83 379.622 839.34C379.162 839.85 378.932 840.59 378.932 841.56V846H377.882V837.81H378.932V839.22C379.192 838.71 379.562 838.325 380.042 838.065C380.522 837.795 381.057 837.66 381.647 837.66C382.357 837.66 382.977 837.83 383.507 838.17C384.047 838.51 384.437 839.01 384.677 839.67C384.897 839.02 385.272 838.525 385.802 838.185C386.342 837.835 386.952 837.66 387.632 837.66ZM402.969 837.66C403.929 837.66 404.709 837.965 405.309 838.575C405.919 839.175 406.224 840.05 406.224 841.2V846H405.189V841.32C405.189 840.43 404.974 839.75 404.544 839.28C404.114 838.81 403.529 838.575 402.789 838.575C402.019 838.575 401.404 838.83 400.944 839.34C400.484 839.85 400.254 840.59 400.254 841.56V846H399.219V841.32C399.219 840.43 399.004 839.75 398.574 839.28C398.144 838.81 397.554 838.575 396.804 838.575C396.034 838.575 395.419 838.83 394.959 839.34C394.499 839.85 394.269 840.59 394.269 841.56V846H393.219V837.81H394.269V839.22C394.529 838.71 394.899 838.325 395.379 838.065C395.859 837.795 396.394 837.66 396.984 837.66C397.694 837.66 398.314 837.83 398.844 838.17C399.384 838.51 399.774 839.01 400.014 839.67C400.234 839.02 400.609 838.525 401.139 838.185C401.679 837.835 402.289 837.66 402.969 837.66ZM415.965 841.485C415.965 841.845 415.955 842.12 415.935 842.31H409.14C409.17 842.93 409.32 843.46 409.59 843.9C409.86 844.34 410.215 844.675 410.655 844.905C411.095 845.125 411.575 845.235 412.095 845.235C412.775 845.235 413.345 845.07 413.805 844.74C414.275 844.41 414.585 843.965 414.735 843.405H415.845C415.645 844.205 415.215 844.86 414.555 845.37C413.905 845.87 413.085 846.12 412.095 846.12C411.325 846.12 410.635 845.95 410.025 845.61C409.415 845.26 408.935 844.77 408.585 844.14C408.245 843.5 408.075 842.755 408.075 841.905C408.075 841.055 408.245 840.31 408.585 839.67C408.925 839.03 409.4 838.54 410.01 838.2C410.62 837.86 411.315 837.69 412.095 837.69C412.875 837.69 413.555 837.86 414.135 838.2C414.725 838.54 415.175 839 415.485 839.58C415.805 840.15 415.965 840.785 415.965 841.485ZM414.9 841.455C414.91 840.845 414.785 840.325 414.525 839.895C414.275 839.465 413.93 839.14 413.49 838.92C413.05 838.7 412.57 838.59 412.05 838.59C411.27 838.59 410.605 838.84 410.055 839.34C409.505 839.84 409.2 840.545 409.14 841.455H414.9ZM421.727 837.66C422.707 837.66 423.507 837.965 424.127 838.575C424.747 839.175 425.057 840.05 425.057 841.2V846H424.022V841.32C424.022 840.43 423.797 839.75 423.347 839.28C422.907 838.81 422.302 838.575 421.532 838.575C420.742 838.575 420.112 838.825 419.642 839.325C419.172 839.825 418.937 840.56 418.937 841.53V846H417.887V837.81H418.937V839.205C419.197 838.705 419.572 838.325 420.062 838.065C420.552 837.795 421.107 837.66 421.727 837.66ZM428.744 838.695V843.78C428.744 844.28 428.839 844.625 429.029 844.815C429.219 845.005 429.554 845.1 430.034 845.1H430.994V846H429.869C429.129 846 428.579 845.83 428.219 845.49C427.859 845.14 427.679 844.57 427.679 843.78V838.695H426.539V837.81H427.679V835.755H428.744V837.81H430.994V838.695H428.744Z" fill="black"/>
<rect x="814" y="188" width="428" height="926" rx="30" fill="#FEEEBD"/>
<path d="M1005.98 419.761C1005.98 417.476 1006.42 415.418 1007.3 413.587C1008.19 411.756 1009.44 410.335 1011.05 409.324C1012.68 408.299 1014.52 407.786 1016.57 407.786C1019.73 407.786 1022.3 408.899 1024.26 411.126C1026.22 413.338 1027.2 416.275 1027.2 419.937V420.486C1027.2 422.786 1026.76 424.859 1025.86 426.705C1024.98 428.536 1023.74 429.949 1022.13 430.945C1020.52 431.941 1018.68 432.439 1016.61 432.439C1013.46 432.439 1010.9 431.333 1008.92 429.122C1006.96 426.895 1005.98 423.951 1005.98 420.289V419.761ZM1008.61 420.486C1008.61 423.328 1009.35 425.665 1010.81 427.496C1012.29 429.312 1014.22 430.22 1016.61 430.22C1018.99 430.22 1020.9 429.312 1022.37 427.496C1023.85 425.665 1024.59 423.255 1024.59 420.267V419.761C1024.59 417.945 1024.25 416.282 1023.58 414.773C1022.9 413.265 1021.96 412.1 1020.74 411.28C1019.53 410.445 1018.14 410.027 1016.57 410.027C1014.22 410.027 1012.31 410.95 1010.83 412.796C1009.35 414.627 1008.61 417.029 1008.61 420.003V420.486ZM1038.3 420.025L1035.29 422.925V432H1032.65V398.25H1035.29V419.849L1037.77 417.168L1046.87 408.226H1050.19L1040.1 418.245L1051.07 432H1047.92L1038.3 420.025Z" fill="black"/>
<path d="M965.927 318H959.335V304.289H946.481V318H939.89V286.008H946.481V298.972H959.335V286.008H965.927V318ZM970.3 305.893C970.3 303.535 970.754 301.433 971.662 299.587C972.57 297.741 973.874 296.313 975.573 295.302C977.287 294.292 979.272 293.786 981.528 293.786C984.736 293.786 987.351 294.768 989.372 296.73C991.408 298.693 992.543 301.359 992.778 304.729L992.822 306.354C992.822 310.002 991.804 312.932 989.768 315.144C987.731 317.341 985 318.439 981.572 318.439C978.144 318.439 975.405 317.341 973.354 315.144C971.318 312.946 970.3 309.958 970.3 306.179V305.893ZM976.65 306.354C976.65 308.61 977.075 310.339 977.924 311.54C978.774 312.727 979.99 313.32 981.572 313.32C983.11 313.32 984.311 312.734 985.175 311.562C986.04 310.375 986.472 308.486 986.472 305.893C986.472 303.681 986.04 301.967 985.175 300.751C984.311 299.536 983.095 298.928 981.528 298.928C979.975 298.928 978.774 299.536 977.924 300.751C977.075 301.953 976.65 303.82 976.65 306.354ZM1017.41 309.365L1020.53 294.226H1026.66L1020.6 318H1015.28L1010.77 303.037L1006.27 318H1000.97L994.909 294.226H1001.04L1004.14 309.343L1008.49 294.226H1013.08L1017.41 309.365ZM1061.71 309.365L1064.83 294.226H1070.96L1064.89 318H1059.57L1055.07 303.037L1050.57 318H1045.27L1039.21 294.226H1045.34L1048.43 309.343L1052.79 294.226H1057.38L1061.71 309.365ZM1087.9 318C1087.6 317.429 1087.39 316.718 1087.26 315.869C1085.72 317.583 1083.72 318.439 1081.26 318.439C1078.93 318.439 1077 317.766 1075.46 316.418C1073.94 315.07 1073.18 313.371 1073.18 311.32C1073.18 308.801 1074.11 306.867 1075.97 305.52C1077.84 304.172 1080.54 303.491 1084.07 303.476H1087V302.114C1087 301.015 1086.71 300.136 1086.14 299.477C1085.58 298.818 1084.7 298.488 1083.48 298.488C1082.41 298.488 1081.57 298.745 1080.95 299.257C1080.35 299.77 1080.05 300.473 1080.05 301.367H1073.7C1073.7 299.99 1074.13 298.715 1074.98 297.543C1075.83 296.372 1077.03 295.456 1078.58 294.797C1080.13 294.123 1081.88 293.786 1083.81 293.786C1086.74 293.786 1089.06 294.526 1090.78 296.005C1092.5 297.47 1093.37 299.536 1093.37 302.202V312.507C1093.38 314.763 1093.7 316.469 1094.31 317.626V318H1087.9ZM1082.65 313.583C1083.58 313.583 1084.45 313.378 1085.24 312.968C1086.03 312.543 1086.62 311.979 1087 311.276V307.189H1084.62C1081.44 307.189 1079.75 308.288 1079.55 310.485L1079.53 310.859C1079.53 311.65 1079.8 312.302 1080.36 312.814C1080.92 313.327 1081.68 313.583 1082.65 313.583ZM1111.12 311.43C1111.12 310.654 1110.73 310.046 1109.96 309.606C1109.2 309.152 1107.97 308.75 1106.27 308.398C1100.61 307.211 1097.79 304.809 1097.79 301.191C1097.79 299.082 1098.66 297.324 1100.4 295.917C1102.16 294.497 1104.45 293.786 1107.28 293.786C1110.29 293.786 1112.7 294.497 1114.51 295.917C1116.32 297.338 1117.23 299.184 1117.23 301.455H1110.88C1110.88 300.546 1110.59 299.799 1110 299.213C1109.42 298.613 1108.5 298.312 1107.26 298.312C1106.19 298.312 1105.36 298.554 1104.77 299.038C1104.19 299.521 1103.89 300.136 1103.89 300.883C1103.89 301.586 1104.22 302.158 1104.88 302.597C1105.56 303.022 1106.68 303.396 1108.27 303.718C1109.85 304.025 1111.18 304.377 1112.27 304.772C1115.62 306.003 1117.3 308.134 1117.3 311.167C1117.3 313.334 1116.37 315.092 1114.51 316.44C1112.65 317.773 1110.24 318.439 1107.3 318.439C1105.31 318.439 1103.53 318.088 1101.98 317.385C1100.44 316.667 1099.24 315.693 1098.36 314.462C1097.48 313.217 1097.04 311.877 1097.04 310.441H1103.06C1103.12 311.569 1103.53 312.434 1104.31 313.034C1105.09 313.635 1106.13 313.935 1107.43 313.935C1108.65 313.935 1109.56 313.708 1110.18 313.254C1110.81 312.785 1111.12 312.177 1111.12 311.43ZM864.545 362.013L868.94 347.226H875.751L866.193 374.691L865.666 375.944C864.245 379.049 861.901 380.602 858.635 380.602C857.712 380.602 856.774 380.463 855.822 380.185V375.373L856.789 375.395C857.99 375.395 858.884 375.211 859.47 374.845C860.07 374.479 860.539 373.871 860.876 373.021L861.623 371.066L853.295 347.226H860.129L864.545 362.013ZM876.916 358.893C876.916 356.535 877.37 354.433 878.278 352.587C879.187 350.741 880.49 349.313 882.189 348.302C883.903 347.292 885.888 346.786 888.144 346.786C891.352 346.786 893.967 347.768 895.988 349.73C898.024 351.693 899.16 354.359 899.394 357.729L899.438 359.354C899.438 363.002 898.42 365.932 896.384 368.144C894.348 370.341 891.616 371.439 888.188 371.439C884.76 371.439 882.021 370.341 879.97 368.144C877.934 365.946 876.916 362.958 876.916 359.179V358.893ZM883.266 359.354C883.266 361.61 883.691 363.339 884.541 364.54C885.39 365.727 886.606 366.32 888.188 366.32C889.726 366.32 890.927 365.734 891.792 364.562C892.656 363.375 893.088 361.486 893.088 358.893C893.088 356.681 892.656 354.967 891.792 353.751C890.927 352.536 889.711 351.928 888.144 351.928C886.591 351.928 885.39 352.536 884.541 353.751C883.691 354.953 883.266 356.82 883.266 359.354ZM917.587 368.583C916.02 370.487 913.852 371.439 911.083 371.439C908.535 371.439 906.586 370.707 905.239 369.242C903.906 367.777 903.225 365.631 903.195 362.804V347.226H909.545V362.584C909.545 365.06 910.673 366.298 912.929 366.298C915.083 366.298 916.562 365.551 917.368 364.057V347.226H923.74V371H917.763L917.587 368.583ZM941.889 353.18C941.025 353.063 940.263 353.004 939.604 353.004C937.202 353.004 935.627 353.817 934.88 355.443V371H928.53V347.226H934.528L934.704 350.06C935.979 347.877 937.744 346.786 940 346.786C940.703 346.786 941.362 346.881 941.977 347.072L941.889 353.18ZM969.948 371C969.655 370.429 969.443 369.718 969.311 368.869C967.773 370.583 965.773 371.439 963.312 371.439C960.983 371.439 959.05 370.766 957.512 369.418C955.988 368.07 955.227 366.371 955.227 364.32C955.227 361.801 956.157 359.867 958.017 358.52C959.892 357.172 962.595 356.491 966.125 356.476H969.047V355.114C969.047 354.015 968.762 353.136 968.19 352.477C967.634 351.818 966.748 351.488 965.532 351.488C964.462 351.488 963.62 351.745 963.005 352.257C962.404 352.77 962.104 353.473 962.104 354.367H955.754C955.754 352.99 956.179 351.715 957.028 350.543C957.878 349.372 959.079 348.456 960.632 347.797C962.185 347.123 963.928 346.786 965.861 346.786C968.791 346.786 971.113 347.526 972.827 349.005C974.555 350.47 975.419 352.536 975.419 355.202V365.507C975.434 367.763 975.749 369.469 976.364 370.626V371H969.948ZM964.697 366.583C965.634 366.583 966.499 366.378 967.29 365.968C968.081 365.543 968.667 364.979 969.047 364.276V360.189H966.674C963.496 360.189 961.804 361.288 961.599 363.485L961.577 363.859C961.577 364.65 961.855 365.302 962.412 365.814C962.968 366.327 963.73 366.583 964.697 366.583ZM987.9 341.381V347.226H991.965V351.884H987.9V363.749C987.9 364.628 988.068 365.258 988.405 365.639C988.742 366.02 989.387 366.21 990.339 366.21C991.042 366.21 991.665 366.159 992.207 366.056V370.868C990.961 371.249 989.68 371.439 988.361 371.439C983.908 371.439 981.638 369.191 981.55 364.694V351.884H978.078V347.226H981.55V341.381H987.9ZM1003.1 341.381V347.226H1007.17V351.884H1003.1V363.749C1003.1 364.628 1003.27 365.258 1003.61 365.639C1003.95 366.02 1004.59 366.21 1005.54 366.21C1006.25 366.21 1006.87 366.159 1007.41 366.056V370.868C1006.17 371.249 1004.88 371.439 1003.57 371.439C999.113 371.439 996.843 369.191 996.755 364.694V351.884H993.283V347.226H996.755V341.381H1003.1ZM1021.65 371.439C1018.16 371.439 1015.32 370.37 1013.12 368.231C1010.94 366.093 1009.85 363.244 1009.85 359.684V359.069C1009.85 356.681 1010.31 354.55 1011.23 352.675C1012.16 350.785 1013.46 349.335 1015.15 348.324C1016.85 347.299 1018.78 346.786 1020.95 346.786C1024.2 346.786 1026.75 347.812 1028.62 349.862C1030.49 351.913 1031.43 354.821 1031.43 358.585V361.178H1016.29C1016.49 362.731 1017.11 363.976 1018.13 364.914C1019.17 365.851 1020.49 366.32 1022.07 366.32C1024.51 366.32 1026.43 365.434 1027.8 363.661L1030.92 367.155C1029.97 368.502 1028.68 369.557 1027.06 370.319C1025.43 371.066 1023.63 371.439 1021.65 371.439ZM1020.92 351.928C1019.67 351.928 1018.64 352.353 1017.85 353.202C1017.07 354.052 1016.57 355.268 1016.35 356.85H1025.19V356.344C1025.16 354.938 1024.78 353.854 1024.04 353.092C1023.31 352.316 1022.27 351.928 1020.92 351.928ZM1040.9 347.226L1041.1 349.972C1042.79 347.848 1045.07 346.786 1047.93 346.786C1050.45 346.786 1052.32 347.526 1053.55 349.005C1054.78 350.485 1055.41 352.697 1055.44 355.641V371H1049.09V355.795C1049.09 354.447 1048.8 353.473 1048.21 352.873C1047.63 352.257 1046.65 351.95 1045.29 351.95C1043.51 351.95 1042.17 352.711 1041.27 354.235V371H1034.92V347.226H1040.9ZM1059.29 358.937C1059.29 355.231 1060.12 352.279 1061.77 350.082C1063.44 347.885 1065.72 346.786 1068.61 346.786C1070.92 346.786 1072.83 347.65 1074.34 349.379V337.25H1080.71V371H1074.98L1074.67 368.473C1073.09 370.451 1071.05 371.439 1068.56 371.439C1065.76 371.439 1063.52 370.341 1061.82 368.144C1060.13 365.932 1059.29 362.863 1059.29 358.937ZM1065.64 359.398C1065.64 361.625 1066.03 363.332 1066.8 364.518C1067.58 365.705 1068.71 366.298 1070.19 366.298C1072.15 366.298 1073.53 365.47 1074.34 363.815V354.433C1073.55 352.777 1072.18 351.95 1070.23 351.95C1067.17 351.95 1065.64 354.433 1065.64 359.398ZM1099.41 371C1099.12 370.429 1098.91 369.718 1098.77 368.869C1097.24 370.583 1095.24 371.439 1092.78 371.439C1090.45 371.439 1088.51 370.766 1086.97 369.418C1085.45 368.07 1084.69 366.371 1084.69 364.32C1084.69 361.801 1085.62 359.867 1087.48 358.52C1089.35 357.172 1092.06 356.491 1095.59 356.476H1098.51V355.114C1098.51 354.015 1098.22 353.136 1097.65 352.477C1097.1 351.818 1096.21 351.488 1094.99 351.488C1093.93 351.488 1093.08 351.745 1092.47 352.257C1091.87 352.77 1091.57 353.473 1091.57 354.367H1085.22C1085.22 352.99 1085.64 351.715 1086.49 350.543C1087.34 349.372 1088.54 348.456 1090.09 347.797C1091.65 347.123 1093.39 346.786 1095.32 346.786C1098.25 346.786 1100.58 347.526 1102.29 349.005C1104.02 350.47 1104.88 352.536 1104.88 355.202V365.507C1104.9 367.763 1105.21 369.469 1105.83 370.626V371H1099.41ZM1094.16 366.583C1095.1 366.583 1095.96 366.378 1096.75 365.968C1097.54 365.543 1098.13 364.979 1098.51 364.276V360.189H1096.14C1092.96 360.189 1091.27 361.288 1091.06 363.485L1091.04 363.859C1091.04 364.65 1091.32 365.302 1091.87 365.814C1092.43 366.327 1093.19 366.583 1094.16 366.583ZM1115.6 347.226L1115.8 349.972C1117.5 347.848 1119.78 346.786 1122.64 346.786C1125.16 346.786 1127.03 347.526 1128.26 349.005C1129.49 350.485 1130.12 352.697 1130.15 355.641V371H1123.8V355.795C1123.8 354.447 1123.51 353.473 1122.92 352.873C1122.34 352.257 1121.36 351.95 1120 351.95C1118.21 351.95 1116.87 352.711 1115.98 354.235V371H1109.63V347.226H1115.6ZM1144.87 366.32C1146.04 366.32 1147 365.998 1147.73 365.353C1148.46 364.708 1148.84 363.852 1148.87 362.782H1154.83C1154.81 364.394 1154.37 365.873 1153.51 367.221C1152.64 368.554 1151.46 369.594 1149.95 370.341C1148.45 371.073 1146.8 371.439 1144.98 371.439C1141.58 371.439 1138.9 370.363 1136.94 368.209C1134.98 366.042 1134 363.053 1134 359.245V358.827C1134 355.165 1134.97 352.243 1136.92 350.06C1138.87 347.877 1141.54 346.786 1144.94 346.786C1147.91 346.786 1150.29 347.636 1152.08 349.335C1153.88 351.02 1154.8 353.268 1154.83 356.081H1148.87C1148.84 354.85 1148.46 353.854 1147.73 353.092C1147 352.316 1146.03 351.928 1144.83 351.928C1143.35 351.928 1142.23 352.47 1141.47 353.554C1140.72 354.623 1140.35 356.366 1140.35 358.783V359.442C1140.35 361.889 1140.72 363.646 1141.47 364.716C1142.21 365.785 1143.35 366.32 1144.87 366.32ZM1169.39 371.439C1165.91 371.439 1163.07 370.37 1160.87 368.231C1158.69 366.093 1157.59 363.244 1157.59 359.684V359.069C1157.59 356.681 1158.06 354.55 1158.98 352.675C1159.9 350.785 1161.21 349.335 1162.89 348.324C1164.59 347.299 1166.52 346.786 1168.69 346.786C1171.94 346.786 1174.5 347.812 1176.36 349.862C1178.23 351.913 1179.17 354.821 1179.17 358.585V361.178H1164.03C1164.24 362.731 1164.85 363.976 1165.88 364.914C1166.92 365.851 1168.23 366.32 1169.81 366.32C1172.26 366.32 1174.17 365.434 1175.55 363.661L1178.67 367.155C1177.71 368.502 1176.43 369.557 1174.8 370.319C1173.17 371.066 1171.37 371.439 1169.39 371.439ZM1168.67 351.928C1167.41 351.928 1166.38 352.353 1165.59 353.202C1164.82 354.052 1164.32 355.268 1164.1 356.85H1172.93V356.344C1172.9 354.938 1172.52 353.854 1171.79 353.092C1171.06 352.316 1170.02 351.928 1168.67 351.928ZM1187.98 361.178C1187.98 359.127 1188.23 357.494 1188.73 356.278C1189.23 355.062 1190.14 353.869 1191.45 352.697C1192.79 351.51 1193.67 350.551 1194.11 349.818C1194.55 349.071 1194.77 348.288 1194.77 347.467C1194.77 344.992 1193.63 343.754 1191.34 343.754C1190.26 343.754 1189.39 344.091 1188.73 344.765C1188.09 345.424 1187.75 346.339 1187.72 347.511H1181.35C1181.38 344.713 1182.28 342.523 1184.05 340.941C1185.84 339.359 1188.27 338.568 1191.34 338.568C1194.45 338.568 1196.86 339.323 1198.57 340.832C1200.29 342.326 1201.14 344.442 1201.14 347.182C1201.14 348.427 1200.87 349.606 1200.31 350.719C1199.75 351.818 1198.78 353.041 1197.39 354.389L1195.61 356.081C1194.49 357.15 1193.86 358.402 1193.7 359.838L1193.61 361.178H1187.98ZM1187.35 367.924C1187.35 366.942 1187.68 366.137 1188.33 365.507C1189.01 364.862 1189.87 364.54 1190.91 364.54C1191.95 364.54 1192.79 364.862 1193.45 365.507C1194.13 366.137 1194.46 366.942 1194.46 367.924C1194.46 368.891 1194.14 369.689 1193.48 370.319C1192.83 370.949 1191.97 371.264 1190.91 371.264C1189.84 371.264 1188.97 370.949 1188.31 370.319C1187.67 369.689 1187.35 368.891 1187.35 367.924Z" fill="black"/>
<rect x="843" y="1007" width="371" height="68" rx="14" fill="black"/>
<path d="M996.422 1052V1030.67H1002.72C1004.61 1030.67 1006.28 1031.09 1007.73 1031.93C1009.2 1032.77 1010.33 1033.96 1011.13 1035.51C1011.93 1037.05 1012.33 1038.82 1012.33 1040.81V1041.88C1012.33 1043.9 1011.92 1045.68 1011.11 1047.21C1010.31 1048.74 1009.17 1049.92 1007.67 1050.75C1006.19 1051.58 1004.48 1052 1002.56 1052H996.422ZM1000.13 1033.66V1049.04H1002.54C1004.49 1049.04 1005.98 1048.44 1007.01 1047.22C1008.06 1046 1008.59 1044.26 1008.61 1041.98V1040.79C1008.61 1038.48 1008.11 1036.71 1007.1 1035.49C1006.09 1034.27 1004.63 1033.66 1002.72 1033.66H1000.13ZM1015.01 1043.93C1015.01 1042.38 1015.32 1040.98 1015.93 1039.74C1016.55 1038.49 1017.41 1037.53 1018.53 1036.87C1019.64 1036.19 1020.92 1035.86 1022.36 1035.86C1024.5 1035.86 1026.24 1036.55 1027.56 1037.92C1028.9 1039.3 1029.62 1041.13 1029.73 1043.4L1029.75 1044.24C1029.75 1045.8 1029.44 1047.2 1028.84 1048.43C1028.24 1049.66 1027.38 1050.61 1026.26 1051.28C1025.15 1051.96 1023.86 1052.29 1022.39 1052.29C1020.16 1052.29 1018.37 1051.55 1017.02 1050.07C1015.68 1048.57 1015.01 1046.58 1015.01 1044.1V1043.93ZM1018.57 1044.24C1018.57 1045.87 1018.91 1047.15 1019.58 1048.07C1020.25 1048.99 1021.19 1049.45 1022.39 1049.45C1023.59 1049.45 1024.53 1048.98 1025.19 1048.04C1025.87 1047.11 1026.2 1045.74 1026.2 1043.93C1026.2 1042.33 1025.86 1041.06 1025.16 1040.12C1024.48 1039.18 1023.55 1038.71 1022.36 1038.71C1021.2 1038.71 1020.28 1039.18 1019.6 1040.11C1018.91 1041.02 1018.57 1042.4 1018.57 1044.24ZM1036.06 1036.15L1036.16 1037.98C1037.33 1036.57 1038.87 1035.86 1040.78 1035.86C1044.08 1035.86 1045.76 1037.75 1045.82 1041.53V1052H1042.26V1041.73C1042.26 1040.73 1042.04 1039.98 1041.6 1039.5C1041.17 1039.02 1040.46 1038.77 1039.47 1038.77C1038.04 1038.77 1036.97 1039.42 1036.27 1040.72V1052H1032.71V1036.15H1036.06ZM1056.44 1052.29C1054.18 1052.29 1052.35 1051.58 1050.94 1050.17C1049.55 1048.74 1048.85 1046.85 1048.85 1044.49V1044.05C1048.85 1042.46 1049.15 1041.05 1049.76 1039.81C1050.37 1038.56 1051.23 1037.59 1052.33 1036.9C1053.44 1036.2 1054.67 1035.86 1056.03 1035.86C1058.18 1035.86 1059.85 1036.55 1061.02 1037.92C1062.2 1039.3 1062.79 1041.25 1062.79 1043.77V1045.2H1052.44C1052.54 1046.51 1052.98 1047.55 1053.74 1048.31C1054.51 1049.07 1055.48 1049.45 1056.64 1049.45C1058.27 1049.45 1059.6 1048.79 1060.63 1047.47L1062.54 1049.3C1061.91 1050.25 1061.06 1050.99 1060 1051.52C1058.94 1052.03 1057.75 1052.29 1056.44 1052.29ZM1056.01 1038.71C1055.04 1038.71 1054.24 1039.06 1053.64 1039.74C1053.04 1040.42 1052.66 1041.38 1052.5 1042.6H1059.28V1042.33C1059.2 1041.14 1058.88 1040.24 1058.33 1039.64C1057.77 1039.02 1057 1038.71 1056.01 1038.71Z" fill="white"/>
<path d="M879 911H1178" stroke="#DAC890" stroke-opacity="0.45" stroke-width="4" stroke-linecap="round"/>
<circle cx="1028.5" cy="912.5" r="8.5" fill="black"/>
<rect x="1000" y="884" width="57" height="57" rx="14" stroke="white" stroke-width="4"/>
<path d="M965 680.945C998 687.945 1042.5 694.445 1081.5 694.445" stroke="black" stroke-width="3" stroke-linecap="round" stroke-linejoin="round"/>
<path d="M1101 586.445C1101.65 587.796 1101.65 587.796 1101.65 587.796L1101.65 587.795L1101.66 587.793L1101.67 587.787L1101.71 587.768C1101.74 587.752 1101.79 587.728 1101.85 587.698C1101.96 587.638 1102.13 587.55 1102.34 587.435C1102.76 587.205 1103.36 586.865 1104.07 586.416C1105.48 585.521 1107.37 584.185 1109.27 582.418C1113.04 578.907 1117 573.538 1117 566.445C1117 565.663 1116.4 565.012 1115.62 564.95L1058.62 560.45C1058.07 560.407 1057.55 560.663 1057.25 561.119C1056.95 561.574 1056.92 562.157 1057.17 562.641L1058.5 561.945C1057.17 562.641 1057.17 562.641 1057.17 562.641L1057.17 562.641L1057.17 562.642L1057.17 562.645L1057.18 562.658L1057.2 562.705L1057.3 562.888C1057.38 563.045 1057.5 563.273 1057.65 563.554C1057.95 564.115 1058.37 564.89 1058.83 565.742C1059.76 567.431 1060.91 569.479 1061.74 570.764C1068.06 580.47 1077.99 584.738 1086.19 586.596C1090.29 587.527 1094.01 587.863 1096.7 587.968C1098.04 588.02 1099.14 588.014 1099.9 587.995C1100.28 587.985 1100.58 587.972 1100.78 587.961C1100.89 587.956 1100.97 587.951 1101.02 587.947L1101.09 587.943L1101.11 587.942L1101.11 587.941L1101.11 587.941C1101.11 587.941 1101.12 587.941 1101 586.445ZM1101 586.445L1101.65 587.796C1101.48 587.877 1101.3 587.927 1101.12 587.941L1101 586.445Z" fill="white" stroke="black" stroke-width="3" stroke-linejoin="round"/>
<path d="M1085.5 578.445C1085.5 581.483 1083.04 583.945 1080 583.945C1076.96 583.945 1074.5 581.483 1074.5 578.445C1074.5 575.408 1076.96 572.945 1080 572.945C1083.04 572.945 1085.5 575.408 1085.5 578.445Z" fill="black"/>
<path d="M956.5 586.445C956.385 587.941 956.385 587.941 956.386 587.941L956.388 587.941L956.394 587.942L956.412 587.943L956.477 587.947C956.533 587.951 956.613 587.956 956.716 587.961C956.922 587.972 957.22 587.985 957.601 587.995C958.362 588.014 959.455 588.02 960.802 587.968C963.491 587.863 967.206 587.527 971.314 586.596C979.507 584.738 989.437 580.47 995.757 570.764C996.594 569.479 997.744 567.431 998.667 565.742C999.133 564.89 999.548 564.115 999.846 563.554C999.996 563.273 1000.12 563.045 1000.2 562.888L1000.3 562.705L1000.32 562.658L1000.33 562.645L1000.33 562.642L1000.33 562.641L1000.33 562.641C1000.33 562.641 1000.33 562.641 999 561.945L1000.33 562.641C1000.58 562.157 1000.55 561.574 1000.25 561.119C999.951 560.663 999.426 560.407 998.882 560.45L941.882 564.95C941.102 565.012 940.5 565.663 940.5 566.445C940.5 573.538 944.457 578.907 948.228 582.418C950.125 584.185 952.017 585.521 953.433 586.416C954.142 586.865 954.736 587.205 955.157 587.435C955.368 587.55 955.535 587.638 955.653 587.698C955.712 587.728 955.758 587.752 955.791 587.768L955.83 587.787L955.841 587.793L955.845 587.795L955.847 587.796C955.847 587.796 955.848 587.796 956.5 586.445ZM956.5 586.445L956.385 587.941C956.198 587.927 956.016 587.877 955.848 587.796L956.5 586.445Z" fill="white" stroke="black" stroke-width="3" stroke-linejoin="round"/>
<path d="M968.5 578.445C968.5 581.483 966.038 583.945 963 583.945C959.962 583.945 957.5 581.483 957.5 578.445C957.5 575.408 959.962 572.945 963 572.945C966.038 572.945 968.5 575.408 968.5 578.445Z" fill="black"/>
<path d="M873 231.817L870.986 229.803L863 237.789L855.014 229.803L853 231.817L860.986 239.803L853 247.789L855.014 249.803L863 241.817L870.986 249.803L873 247.789L865.014 239.803L873 231.817Z" fill="black"/>
<path fill-rule="evenodd" clip-rule="evenodd" d="M897 833C897 831.343 895.657 830 894 830H880C878.343 830 877 831.343 877 833V843.515C877 844.887 878.113 846 879.485 846C879.802 846 880.033 846.299 879.955 846.606L879.893 846.844C879.251 849.34 882.164 851.212 884.168 849.59L888.329 846.223C888.507 846.079 888.729 846 888.958 846H894C895.657 846 897 844.657 897 843V833ZM894 832C894.552 832 895 832.448 895 833V843C895 843.552 894.552 844 894 844H888.958C888.271 844 887.605 844.236 887.071 844.668L882.91 848.035C882.404 848.445 881.668 847.972 881.83 847.342L881.892 847.104C882.296 845.531 881.108 844 879.485 844C879.217 844 879 843.783 879 843.515V833C879 832.448 879.448 832 880 832H894Z" fill="#05060F"/>
<path d="M911.75 843.51H906.98L906.065 846H904.955L908.78 835.65H909.965L913.775 846H912.665L911.75 843.51ZM911.435 842.64L909.365 836.97L907.295 842.64H911.435ZM914.98 841.89C914.98 841.05 915.15 840.315 915.49 839.685C915.83 839.045 916.295 838.555 916.885 838.215C917.485 837.865 918.16 837.69 918.91 837.69C919.63 837.69 920.28 837.865 920.86 838.215C921.44 838.565 921.865 839.02 922.135 839.58V834.9H923.185V846H922.135V844.17C921.885 844.74 921.475 845.21 920.905 845.58C920.335 845.94 919.665 846.12 918.895 846.12C918.145 846.12 917.47 845.945 916.87 845.595C916.28 845.245 915.815 844.75 915.475 844.11C915.145 843.47 914.98 842.73 914.98 841.89ZM922.135 841.905C922.135 841.245 922 840.665 921.73 840.165C921.46 839.665 921.09 839.28 920.62 839.01C920.16 838.74 919.65 838.605 919.09 838.605C918.51 838.605 917.99 838.735 917.53 838.995C917.07 839.255 916.705 839.635 916.435 840.135C916.175 840.625 916.045 841.21 916.045 841.89C916.045 842.56 916.175 843.15 916.435 843.66C916.705 844.16 917.07 844.545 917.53 844.815C917.99 845.075 918.51 845.205 919.09 845.205C919.65 845.205 920.16 845.07 920.62 844.8C921.09 844.53 921.46 844.145 921.73 843.645C922 843.145 922.135 842.565 922.135 841.905ZM925.102 841.89C925.102 841.05 925.272 840.315 925.612 839.685C925.952 839.045 926.417 838.555 927.007 838.215C927.607 837.865 928.282 837.69 929.032 837.69C929.752 837.69 930.402 837.865 930.982 838.215C931.562 838.565 931.987 839.02 932.257 839.58V834.9H933.307V846H932.257V844.17C932.007 844.74 931.597 845.21 931.027 845.58C930.457 845.94 929.787 846.12 929.017 846.12C928.267 846.12 927.592 845.945 926.992 845.595C926.402 845.245 925.937 844.75 925.597 844.11C925.267 843.47 925.102 842.73 925.102 841.89ZM932.257 841.905C932.257 841.245 932.122 840.665 931.852 840.165C931.582 839.665 931.212 839.28 930.742 839.01C930.282 838.74 929.772 838.605 929.212 838.605C928.632 838.605 928.112 838.735 927.652 838.995C927.192 839.255 926.827 839.635 926.557 840.135C926.297 840.625 926.167 841.21 926.167 841.89C926.167 842.56 926.297 843.15 926.557 843.66C926.827 844.16 927.192 844.545 927.652 844.815C928.112 845.075 928.632 845.205 929.212 845.205C929.772 845.205 930.282 845.07 930.742 844.8C931.212 844.53 931.582 844.145 931.852 843.645C932.122 843.145 932.257 842.565 932.257 841.905ZM939.34 841.89C939.34 841.05 939.505 840.315 939.835 839.685C940.175 839.045 940.64 838.555 941.23 838.215C941.83 837.865 942.505 837.69 943.255 837.69C944.035 837.69 944.705 837.87 945.265 838.23C945.835 838.59 946.245 839.05 946.495 839.61V837.81H947.545V846H946.495V844.185C946.235 844.745 945.82 845.21 945.25 845.58C944.69 845.94 944.02 846.12 943.24 846.12C942.5 846.12 941.83 845.945 941.23 845.595C940.64 845.245 940.175 844.75 939.835 844.11C939.505 843.47 939.34 842.73 939.34 841.89ZM946.495 841.905C946.495 841.245 946.36 840.665 946.09 840.165C945.82 839.665 945.45 839.28 944.98 839.01C944.52 838.74 944.01 838.605 943.45 838.605C942.87 838.605 942.35 838.735 941.89 838.995C941.43 839.255 941.065 839.635 940.795 840.135C940.535 840.625 940.405 841.21 940.405 841.89C940.405 842.56 940.535 843.15 940.795 843.66C941.065 844.16 941.43 844.545 941.89 844.815C942.35 845.075 942.87 845.205 943.45 845.205C944.01 845.205 944.52 845.07 944.98 844.8C945.45 844.53 945.82 844.145 946.09 843.645C946.36 843.145 946.495 842.565 946.495 841.905ZM953.578 841.905C953.578 841.055 953.748 840.315 954.088 839.685C954.428 839.045 954.898 838.555 955.498 838.215C956.098 837.865 956.783 837.69 957.553 837.69C958.563 837.69 959.393 837.94 960.043 838.44C960.703 838.94 961.128 839.62 961.318 840.48H960.193C960.053 839.89 959.748 839.43 959.278 839.1C958.818 838.76 958.243 838.59 957.553 838.59C957.003 838.59 956.508 838.715 956.068 838.965C955.628 839.215 955.278 839.59 955.018 840.09C954.768 840.58 954.643 841.185 954.643 841.905C954.643 842.625 954.768 843.235 955.018 843.735C955.278 844.235 955.628 844.61 956.068 844.86C956.508 845.11 957.003 845.235 957.553 845.235C958.243 845.235 958.818 845.07 959.278 844.74C959.748 844.4 960.053 843.93 960.193 843.33H961.318C961.128 844.17 960.703 844.845 960.043 845.355C959.383 845.865 958.553 846.12 957.553 846.12C956.783 846.12 956.098 845.95 955.498 845.61C954.898 845.26 954.428 844.77 954.088 844.14C953.748 843.5 953.578 842.755 953.578 841.905ZM966.843 846.12C966.073 846.12 965.378 845.95 964.758 845.61C964.148 845.26 963.663 844.77 963.303 844.14C962.953 843.5 962.778 842.755 962.778 841.905C962.778 841.055 962.958 840.315 963.318 839.685C963.678 839.045 964.168 838.555 964.788 838.215C965.408 837.865 966.103 837.69 966.873 837.69C967.643 837.69 968.338 837.865 968.958 838.215C969.588 838.555 970.078 839.045 970.428 839.685C970.788 840.315 970.968 841.055 970.968 841.905C970.968 842.745 970.788 843.485 970.428 844.125C970.068 844.765 969.573 845.26 968.943 845.61C968.313 845.95 967.613 846.12 966.843 846.12ZM966.843 845.205C967.383 845.205 967.883 845.085 968.343 844.845C968.803 844.595 969.173 844.225 969.453 843.735C969.743 843.235 969.888 842.625 969.888 841.905C969.888 841.185 969.748 840.58 969.468 840.09C969.188 839.59 968.818 839.22 968.358 838.98C967.898 838.73 967.398 838.605 966.858 838.605C966.318 838.605 965.818 838.73 965.358 838.98C964.898 839.22 964.528 839.59 964.248 840.09C963.978 840.58 963.843 841.185 963.843 841.905C963.843 842.625 963.978 843.235 964.248 843.735C964.528 844.225 964.893 844.595 965.343 844.845C965.803 845.085 966.303 845.205 966.843 845.205ZM982.632 837.66C983.592 837.66 984.372 837.965 984.972 838.575C985.582 839.175 985.887 840.05 985.887 841.2V846H984.852V841.32C984.852 840.43 984.637 839.75 984.207 839.28C983.777 838.81 983.192 838.575 982.452 838.575C981.682 838.575 981.067 838.83 980.607 839.34C980.147 839.85 979.917 840.59 979.917 841.56V846H978.882V841.32C978.882 840.43 978.667 839.75 978.237 839.28C977.807 838.81 977.217 838.575 976.467 838.575C975.697 838.575 975.082 838.83 974.622 839.34C974.162 839.85 973.932 840.59 973.932 841.56V846H972.882V837.81H973.932V839.22C974.192 838.71 974.562 838.325 975.042 838.065C975.522 837.795 976.057 837.66 976.647 837.66C977.357 837.66 977.977 837.83 978.507 838.17C979.047 838.51 979.437 839.01 979.677 839.67C979.897 839.02 980.272 838.525 980.802 838.185C981.342 837.835 981.952 837.66 982.632 837.66ZM997.969 837.66C998.929 837.66 999.709 837.965 1000.31 838.575C1000.92 839.175 1001.22 840.05 1001.22 841.2V846H1000.19V841.32C1000.19 840.43 999.974 839.75 999.544 839.28C999.114 838.81 998.529 838.575 997.789 838.575C997.019 838.575 996.404 838.83 995.944 839.34C995.484 839.85 995.254 840.59 995.254 841.56V846H994.219V841.32C994.219 840.43 994.004 839.75 993.574 839.28C993.144 838.81 992.554 838.575 991.804 838.575C991.034 838.575 990.419 838.83 989.959 839.34C989.499 839.85 989.269 840.59 989.269 841.56V846H988.219V837.81H989.269V839.22C989.529 838.71 989.899 838.325 990.379 838.065C990.859 837.795 991.394 837.66 991.984 837.66C992.694 837.66 993.314 837.83 993.844 838.17C994.384 838.51 994.774 839.01 995.014 839.67C995.234 839.02 995.609 838.525 996.139 838.185C996.679 837.835 997.289 837.66 997.969 837.66ZM1010.97 841.485C1010.97 841.845 1010.96 842.12 1010.94 842.31H1004.14C1004.17 842.93 1004.32 843.46 1004.59 843.9C1004.86 844.34 1005.22 844.675 1005.66 844.905C1006.1 845.125 1006.58 845.235 1007.1 845.235C1007.78 845.235 1008.35 845.07 1008.81 844.74C1009.28 844.41 1009.59 843.965 1009.74 843.405H1010.85C1010.65 844.205 1010.22 844.86 1009.56 845.37C1008.91 845.87 1008.09 846.12 1007.1 846.12C1006.33 846.12 1005.64 845.95 1005.03 845.61C1004.42 845.26 1003.94 844.77 1003.59 844.14C1003.25 843.5 1003.08 842.755 1003.08 841.905C1003.08 841.055 1003.25 840.31 1003.59 839.67C1003.93 839.03 1004.4 838.54 1005.01 838.2C1005.62 837.86 1006.32 837.69 1007.1 837.69C1007.88 837.69 1008.56 837.86 1009.14 838.2C1009.73 838.54 1010.18 839 1010.49 839.58C1010.81 840.15 1010.97 840.785 1010.97 841.485ZM1009.9 841.455C1009.91 840.845 1009.79 840.325 1009.53 839.895C1009.28 839.465 1008.93 839.14 1008.49 838.92C1008.05 838.7 1007.57 838.59 1007.05 838.59C1006.27 838.59 1005.61 838.84 1005.06 839.34C1004.51 839.84 1004.2 840.545 1004.14 841.455H1009.9ZM1016.73 837.66C1017.71 837.66 1018.51 837.965 1019.13 838.575C1019.75 839.175 1020.06 840.05 1020.06 841.2V846H1019.02V841.32C1019.02 840.43 1018.8 839.75 1018.35 839.28C1017.91 838.81 1017.3 838.575 1016.53 838.575C1015.74 838.575 1015.11 838.825 1014.64 839.325C1014.17 839.825 1013.94 840.56 1013.94 841.53V846H1012.89V837.81H1013.94V839.205C1014.2 838.705 1014.57 838.325 1015.06 838.065C1015.55 837.795 1016.11 837.66 1016.73 837.66ZM1023.74 838.695V843.78C1023.74 844.28 1023.84 844.625 1024.03 844.815C1024.22 845.005 1024.55 845.1 1025.03 845.1H1025.99V846H1024.87C1024.13 846 1023.58 845.83 1023.22 845.49C1022.86 845.14 1022.68 844.57 1022.68 843.78V838.695H1021.54V837.81H1022.68V835.755H1023.74V837.81H1025.99V838.695H1023.74Z" fill="black"/>
<rect x="1354" y="188" width="428" height="926" rx="30" fill="#BDFDE5"/>
<path d="M1542.14 428.199C1541.2 429.532 1539.73 430.572 1537.72 431.319C1535.73 432.066 1533.49 432.439 1531.02 432.439C1528.51 432.439 1526.29 431.839 1524.34 430.638C1522.39 429.437 1520.88 427.737 1519.81 425.54C1518.74 423.343 1518.2 420.823 1518.19 417.981V413.938C1518.19 409.5 1519.31 405.999 1521.55 403.436C1523.79 400.857 1526.8 399.568 1530.58 399.568C1533.87 399.568 1536.53 400.411 1538.53 402.095C1540.54 403.765 1541.73 406.072 1542.11 409.017H1539.41C1539.02 406.673 1538.06 404.9 1536.53 403.699C1535.02 402.483 1533.05 401.875 1530.6 401.875C1527.61 401.875 1525.25 402.938 1523.5 405.062C1521.76 407.186 1520.89 410.181 1520.89 414.048V417.828C1520.89 420.259 1521.3 422.413 1522.12 424.288C1522.95 426.148 1524.14 427.591 1525.68 428.616C1527.23 429.642 1529.01 430.154 1531.02 430.154C1533.35 430.154 1535.35 429.788 1537.02 429.056C1538.1 428.572 1538.91 428.008 1539.43 427.364V419.102H1530.84V416.817H1542.14V428.199ZM1547.74 419.761C1547.74 417.476 1548.18 415.418 1549.06 413.587C1549.95 411.756 1551.2 410.335 1552.81 409.324C1554.44 408.299 1556.28 407.786 1558.33 407.786C1561.49 407.786 1564.06 408.899 1566.02 411.126C1567.98 413.338 1568.96 416.275 1568.96 419.937V420.486C1568.96 422.786 1568.52 424.859 1567.62 426.705C1566.75 428.536 1565.5 429.949 1563.89 430.945C1562.28 431.941 1560.44 432.439 1558.37 432.439C1555.22 432.439 1552.66 431.333 1550.68 429.122C1548.72 426.895 1547.74 423.951 1547.74 420.289V419.761ZM1550.38 420.486C1550.38 423.328 1551.11 425.665 1552.57 427.496C1554.05 429.312 1555.99 430.22 1558.37 430.22C1560.75 430.22 1562.67 429.312 1564.13 427.496C1565.61 425.665 1566.35 423.255 1566.35 420.267V419.761C1566.35 417.945 1566.01 416.282 1565.34 414.773C1564.67 413.265 1563.72 412.1 1562.5 411.28C1561.29 410.445 1559.9 410.027 1558.33 410.027C1555.99 410.027 1554.07 410.95 1552.6 412.796C1551.12 414.627 1550.38 417.029 1550.38 420.003V420.486ZM1572.96 419.761C1572.96 417.476 1573.4 415.418 1574.28 413.587C1575.18 411.756 1576.43 410.335 1578.04 409.324C1579.67 408.299 1581.5 407.786 1583.55 407.786C1586.72 407.786 1589.28 408.899 1591.25 411.126C1593.21 413.338 1594.19 416.275 1594.19 419.937V420.486C1594.19 422.786 1593.74 424.859 1592.85 426.705C1591.97 428.536 1590.73 429.949 1589.11 430.945C1587.5 431.941 1585.66 432.439 1583.6 432.439C1580.45 432.439 1577.89 431.333 1575.91 429.122C1573.95 426.895 1572.96 423.951 1572.96 420.289V419.761ZM1575.6 420.486C1575.6 423.328 1576.33 425.665 1577.8 427.496C1579.28 429.312 1581.21 430.22 1583.6 430.22C1585.97 430.22 1587.89 429.312 1589.36 427.496C1590.83 425.665 1591.57 423.255 1591.57 420.267V419.761C1591.57 417.945 1591.24 416.282 1590.56 414.773C1589.89 413.265 1588.95 412.1 1587.73 411.28C1586.51 410.445 1585.12 410.027 1583.55 410.027C1581.21 410.027 1579.3 410.95 1577.82 412.796C1576.34 414.627 1575.6 417.029 1575.6 420.003V420.486ZM1598.58 419.893C1598.58 416.202 1599.4 413.265 1601.04 411.082C1602.7 408.885 1604.94 407.786 1607.77 407.786C1610.98 407.786 1613.42 409.053 1615.11 411.587V398.25H1617.72V432H1615.26L1615.15 428.836C1613.47 431.238 1610.99 432.439 1607.72 432.439C1604.99 432.439 1602.77 431.341 1601.09 429.144C1599.42 426.932 1598.58 423.951 1598.58 420.201V419.893ZM1601.24 420.354C1601.24 423.387 1601.85 425.782 1603.07 427.54C1604.28 429.283 1606 430.154 1608.21 430.154C1611.45 430.154 1613.75 428.726 1615.11 425.87V414.708C1613.75 411.617 1611.46 410.071 1608.25 410.071C1606.04 410.071 1604.32 410.943 1603.09 412.686C1601.86 414.415 1601.24 416.971 1601.24 420.354Z" fill="black"/>
<path d="M1505.93 318H1499.34V304.289H1486.48V318H1479.89V286.008H1486.48V298.972H1499.34V286.008H1505.93V318ZM1510.3 305.893C1510.3 303.535 1510.75 301.433 1511.66 299.587C1512.57 297.741 1513.87 296.313 1515.57 295.302C1517.29 294.292 1519.27 293.786 1521.53 293.786C1524.74 293.786 1527.35 294.768 1529.37 296.73C1531.41 298.693 1532.54 301.359 1532.78 304.729L1532.82 306.354C1532.82 310.002 1531.8 312.932 1529.77 315.144C1527.73 317.341 1525 318.439 1521.57 318.439C1518.14 318.439 1515.4 317.341 1513.35 315.144C1511.32 312.946 1510.3 309.958 1510.3 306.179V305.893ZM1516.65 306.354C1516.65 308.61 1517.07 310.339 1517.92 311.54C1518.77 312.727 1519.99 313.32 1521.57 313.32C1523.11 313.32 1524.31 312.734 1525.18 311.562C1526.04 310.375 1526.47 308.486 1526.47 305.893C1526.47 303.681 1526.04 301.967 1525.18 300.751C1524.31 299.536 1523.1 298.928 1521.53 298.928C1519.98 298.928 1518.77 299.536 1517.92 300.751C1517.07 301.953 1516.65 303.82 1516.65 306.354ZM1557.41 309.365L1560.53 294.226H1566.66L1560.6 318H1555.28L1550.77 303.037L1546.27 318H1540.97L1534.91 294.226H1541.04L1544.14 309.343L1548.49 294.226H1553.08L1557.41 309.365ZM1601.71 309.365L1604.83 294.226H1610.96L1604.89 318H1599.57L1595.07 303.037L1590.57 318H1585.27L1579.21 294.226H1585.34L1588.43 309.343L1592.79 294.226H1597.38L1601.71 309.365ZM1627.9 318C1627.6 317.429 1627.39 316.718 1627.26 315.869C1625.72 317.583 1623.72 318.439 1621.26 318.439C1618.93 318.439 1617 317.766 1615.46 316.418C1613.94 315.07 1613.18 313.371 1613.18 311.32C1613.18 308.801 1614.11 306.867 1615.97 305.52C1617.84 304.172 1620.54 303.491 1624.07 303.476H1627V302.114C1627 301.015 1626.71 300.136 1626.14 299.477C1625.58 298.818 1624.7 298.488 1623.48 298.488C1622.41 298.488 1621.57 298.745 1620.95 299.257C1620.35 299.77 1620.05 300.473 1620.05 301.367H1613.7C1613.7 299.99 1614.13 298.715 1614.98 297.543C1615.83 296.372 1617.03 295.456 1618.58 294.797C1620.13 294.123 1621.88 293.786 1623.81 293.786C1626.74 293.786 1629.06 294.526 1630.78 296.005C1632.5 297.47 1633.37 299.536 1633.37 302.202V312.507C1633.38 314.763 1633.7 316.469 1634.31 317.626V318H1627.9ZM1622.65 313.583C1623.58 313.583 1624.45 313.378 1625.24 312.968C1626.03 312.543 1626.62 311.979 1627 311.276V307.189H1624.62C1621.44 307.189 1619.75 308.288 1619.55 310.485L1619.53 310.859C1619.53 311.65 1619.8 312.302 1620.36 312.814C1620.92 313.327 1621.68 313.583 1622.65 313.583ZM1651.12 311.43C1651.12 310.654 1650.73 310.046 1649.96 309.606C1649.2 309.152 1647.97 308.75 1646.27 308.398C1640.61 307.211 1637.79 304.809 1637.79 301.191C1637.79 299.082 1638.66 297.324 1640.4 295.917C1642.16 294.497 1644.45 293.786 1647.28 293.786C1650.29 293.786 1652.7 294.497 1654.51 295.917C1656.32 297.338 1657.23 299.184 1657.23 301.455H1650.88C1650.88 300.546 1650.59 299.799 1650 299.213C1649.42 298.613 1648.5 298.312 1647.26 298.312C1646.19 298.312 1645.36 298.554 1644.77 299.038C1644.19 299.521 1643.89 300.136 1643.89 300.883C1643.89 301.586 1644.22 302.158 1644.88 302.597C1645.56 303.022 1646.68 303.396 1648.27 303.718C1649.85 304.025 1651.18 304.377 1652.27 304.772C1655.62 306.003 1657.3 308.134 1657.3 311.167C1657.3 313.334 1656.37 315.092 1654.51 316.44C1652.65 317.773 1650.24 318.439 1647.3 318.439C1645.31 318.439 1643.53 318.088 1641.98 317.385C1640.44 316.667 1639.24 315.693 1638.36 314.462C1637.48 313.217 1637.04 311.877 1637.04 310.441H1643.06C1643.12 311.569 1643.53 312.434 1644.31 313.034C1645.09 313.635 1646.13 313.935 1647.43 313.935C1648.65 313.935 1649.56 313.708 1650.18 313.254C1650.81 312.785 1651.12 312.177 1651.12 311.43ZM1404.55 362.013L1408.94 347.226H1415.75L1406.19 374.691L1405.67 375.944C1404.25 379.049 1401.9 380.602 1398.63 380.602C1397.71 380.602 1396.77 380.463 1395.82 380.185V375.373L1396.79 375.395C1397.99 375.395 1398.88 375.211 1399.47 374.845C1400.07 374.479 1400.54 373.871 1400.88 373.021L1401.62 371.066L1393.3 347.226H1400.13L1404.55 362.013ZM1416.92 358.893C1416.92 356.535 1417.37 354.433 1418.28 352.587C1419.19 350.741 1420.49 349.313 1422.19 348.302C1423.9 347.292 1425.89 346.786 1428.14 346.786C1431.35 346.786 1433.97 347.768 1435.99 349.73C1438.02 351.693 1439.16 354.359 1439.39 357.729L1439.44 359.354C1439.44 363.002 1438.42 365.932 1436.38 368.144C1434.35 370.341 1431.62 371.439 1428.19 371.439C1424.76 371.439 1422.02 370.341 1419.97 368.144C1417.93 365.946 1416.92 362.958 1416.92 359.179V358.893ZM1423.27 359.354C1423.27 361.61 1423.69 363.339 1424.54 364.54C1425.39 365.727 1426.61 366.32 1428.19 366.32C1429.73 366.32 1430.93 365.734 1431.79 364.562C1432.66 363.375 1433.09 361.486 1433.09 358.893C1433.09 356.681 1432.66 354.967 1431.79 353.751C1430.93 352.536 1429.71 351.928 1428.14 351.928C1426.59 351.928 1425.39 352.536 1424.54 353.751C1423.69 354.953 1423.27 356.82 1423.27 359.354ZM1457.59 368.583C1456.02 370.487 1453.85 371.439 1451.08 371.439C1448.53 371.439 1446.59 370.707 1445.24 369.242C1443.91 367.777 1443.22 365.631 1443.2 362.804V347.226H1449.55V362.584C1449.55 365.06 1450.67 366.298 1452.93 366.298C1455.08 366.298 1456.56 365.551 1457.37 364.057V347.226H1463.74V371H1457.76L1457.59 368.583ZM1481.89 353.18C1481.02 353.063 1480.26 353.004 1479.6 353.004C1477.2 353.004 1475.63 353.817 1474.88 355.443V371H1468.53V347.226H1474.53L1474.7 350.06C1475.98 347.877 1477.74 346.786 1480 346.786C1480.7 346.786 1481.36 346.881 1481.98 347.072L1481.89 353.18ZM1509.95 371C1509.66 370.429 1509.44 369.718 1509.31 368.869C1507.77 370.583 1505.77 371.439 1503.31 371.439C1500.98 371.439 1499.05 370.766 1497.51 369.418C1495.99 368.07 1495.23 366.371 1495.23 364.32C1495.23 361.801 1496.16 359.867 1498.02 358.52C1499.89 357.172 1502.59 356.491 1506.12 356.476H1509.05V355.114C1509.05 354.015 1508.76 353.136 1508.19 352.477C1507.63 351.818 1506.75 351.488 1505.53 351.488C1504.46 351.488 1503.62 351.745 1503 352.257C1502.4 352.77 1502.1 353.473 1502.1 354.367H1495.75C1495.75 352.99 1496.18 351.715 1497.03 350.543C1497.88 349.372 1499.08 348.456 1500.63 347.797C1502.18 347.123 1503.93 346.786 1505.86 346.786C1508.79 346.786 1511.11 347.526 1512.83 349.005C1514.56 350.47 1515.42 352.536 1515.42 355.202V365.507C1515.43 367.763 1515.75 369.469 1516.36 370.626V371H1509.95ZM1504.7 366.583C1505.63 366.583 1506.5 366.378 1507.29 365.968C1508.08 365.543 1508.67 364.979 1509.05 364.276V360.189H1506.67C1503.5 360.189 1501.8 361.288 1501.6 363.485L1501.58 363.859C1501.58 364.65 1501.85 365.302 1502.41 365.814C1502.97 366.327 1503.73 366.583 1504.7 366.583ZM1527.9 341.381V347.226H1531.96V351.884H1527.9V363.749C1527.9 364.628 1528.07 365.258 1528.41 365.639C1528.74 366.02 1529.39 366.21 1530.34 366.21C1531.04 366.21 1531.66 366.159 1532.21 366.056V370.868C1530.96 371.249 1529.68 371.439 1528.36 371.439C1523.91 371.439 1521.64 369.191 1521.55 364.694V351.884H1518.08V347.226H1521.55V341.381H1527.9ZM1543.1 341.381V347.226H1547.17V351.884H1543.1V363.749C1543.1 364.628 1543.27 365.258 1543.61 365.639C1543.95 366.02 1544.59 366.21 1545.54 366.21C1546.25 366.21 1546.87 366.159 1547.41 366.056V370.868C1546.17 371.249 1544.88 371.439 1543.57 371.439C1539.11 371.439 1536.84 369.191 1536.75 364.694V351.884H1533.28V347.226H1536.75V341.381H1543.1ZM1561.65 371.439C1558.16 371.439 1555.32 370.37 1553.12 368.231C1550.94 366.093 1549.85 363.244 1549.85 359.684V359.069C1549.85 356.681 1550.31 354.55 1551.23 352.675C1552.16 350.785 1553.46 349.335 1555.15 348.324C1556.85 347.299 1558.78 346.786 1560.95 346.786C1564.2 346.786 1566.75 347.812 1568.62 349.862C1570.49 351.913 1571.43 354.821 1571.43 358.585V361.178H1556.29C1556.49 362.731 1557.11 363.976 1558.13 364.914C1559.17 365.851 1560.49 366.32 1562.07 366.32C1564.51 366.32 1566.43 365.434 1567.8 363.661L1570.92 367.155C1569.97 368.502 1568.68 369.557 1567.06 370.319C1565.43 371.066 1563.63 371.439 1561.65 371.439ZM1560.92 351.928C1559.67 351.928 1558.64 352.353 1557.85 353.202C1557.07 354.052 1556.57 355.268 1556.35 356.85H1565.19V356.344C1565.16 354.938 1564.78 353.854 1564.04 353.092C1563.31 352.316 1562.27 351.928 1560.92 351.928ZM1580.9 347.226L1581.1 349.972C1582.79 347.848 1585.07 346.786 1587.93 346.786C1590.45 346.786 1592.32 347.526 1593.55 349.005C1594.78 350.485 1595.41 352.697 1595.44 355.641V371H1589.09V355.795C1589.09 354.447 1588.8 353.473 1588.21 352.873C1587.63 352.257 1586.65 351.95 1585.29 351.95C1583.51 351.95 1582.17 352.711 1581.27 354.235V371H1574.92V347.226H1580.9ZM1599.29 358.937C1599.29 355.231 1600.12 352.279 1601.77 350.082C1603.44 347.885 1605.72 346.786 1608.61 346.786C1610.92 346.786 1612.83 347.65 1614.34 349.379V337.25H1620.71V371H1614.98L1614.67 368.473C1613.09 370.451 1611.05 371.439 1608.56 371.439C1605.76 371.439 1603.52 370.341 1601.82 368.144C1600.13 365.932 1599.29 362.863 1599.29 358.937ZM1605.64 359.398C1605.64 361.625 1606.03 363.332 1606.8 364.518C1607.58 365.705 1608.71 366.298 1610.19 366.298C1612.15 366.298 1613.53 365.47 1614.34 363.815V354.433C1613.55 352.777 1612.18 351.95 1610.23 351.95C1607.17 351.95 1605.64 354.433 1605.64 359.398ZM1639.41 371C1639.12 370.429 1638.91 369.718 1638.77 368.869C1637.24 370.583 1635.24 371.439 1632.78 371.439C1630.45 371.439 1628.51 370.766 1626.97 369.418C1625.45 368.07 1624.69 366.371 1624.69 364.32C1624.69 361.801 1625.62 359.867 1627.48 358.52C1629.35 357.172 1632.06 356.491 1635.59 356.476H1638.51V355.114C1638.51 354.015 1638.22 353.136 1637.65 352.477C1637.1 351.818 1636.21 351.488 1634.99 351.488C1633.93 351.488 1633.08 351.745 1632.47 352.257C1631.87 352.77 1631.57 353.473 1631.57 354.367H1625.22C1625.22 352.99 1625.64 351.715 1626.49 350.543C1627.34 349.372 1628.54 348.456 1630.09 347.797C1631.65 347.123 1633.39 346.786 1635.32 346.786C1638.25 346.786 1640.58 347.526 1642.29 349.005C1644.02 350.47 1644.88 352.536 1644.88 355.202V365.507C1644.9 367.763 1645.21 369.469 1645.83 370.626V371H1639.41ZM1634.16 366.583C1635.1 366.583 1635.96 366.378 1636.75 365.968C1637.54 365.543 1638.13 364.979 1638.51 364.276V360.189H1636.14C1632.96 360.189 1631.27 361.288 1631.06 363.485L1631.04 363.859C1631.04 364.65 1631.32 365.302 1631.87 365.814C1632.43 366.327 1633.19 366.583 1634.16 366.583ZM1655.6 347.226L1655.8 349.972C1657.5 347.848 1659.78 346.786 1662.64 346.786C1665.16 346.786 1667.03 347.526 1668.26 349.005C1669.49 350.485 1670.12 352.697 1670.15 355.641V371H1663.8V355.795C1663.8 354.447 1663.51 353.473 1662.92 352.873C1662.34 352.257 1661.36 351.95 1660 351.95C1658.21 351.95 1656.87 352.711 1655.98 354.235V371H1649.63V347.226H1655.6ZM1684.87 366.32C1686.04 366.32 1687 365.998 1687.73 365.353C1688.46 364.708 1688.84 363.852 1688.87 362.782H1694.83C1694.81 364.394 1694.37 365.873 1693.51 367.221C1692.64 368.554 1691.46 369.594 1689.95 370.341C1688.45 371.073 1686.8 371.439 1684.98 371.439C1681.58 371.439 1678.9 370.363 1676.94 368.209C1674.98 366.042 1674 363.053 1674 359.245V358.827C1674 355.165 1674.97 352.243 1676.92 350.06C1678.87 347.877 1681.54 346.786 1684.94 346.786C1687.91 346.786 1690.29 347.636 1692.08 349.335C1693.88 351.02 1694.8 353.268 1694.83 356.081H1688.87C1688.84 354.85 1688.46 353.854 1687.73 353.092C1687 352.316 1686.03 351.928 1684.83 351.928C1683.35 351.928 1682.23 352.47 1681.47 353.554C1680.72 354.623 1680.35 356.366 1680.35 358.783V359.442C1680.35 361.889 1680.72 363.646 1681.47 364.716C1682.21 365.785 1683.35 366.32 1684.87 366.32ZM1709.39 371.439C1705.91 371.439 1703.07 370.37 1700.87 368.231C1698.69 366.093 1697.59 363.244 1697.59 359.684V359.069C1697.59 356.681 1698.06 354.55 1698.98 352.675C1699.9 350.785 1701.21 349.335 1702.89 348.324C1704.59 347.299 1706.52 346.786 1708.69 346.786C1711.94 346.786 1714.5 347.812 1716.36 349.862C1718.23 351.913 1719.17 354.821 1719.17 358.585V361.178H1704.03C1704.24 362.731 1704.85 363.976 1705.88 364.914C1706.92 365.851 1708.23 366.32 1709.81 366.32C1712.26 366.32 1714.17 365.434 1715.55 363.661L1718.67 367.155C1717.71 368.502 1716.43 369.557 1714.8 370.319C1713.17 371.066 1711.37 371.439 1709.39 371.439ZM1708.67 351.928C1707.41 351.928 1706.38 352.353 1705.59 353.202C1704.82 354.052 1704.32 355.268 1704.1 356.85H1712.93V356.344C1712.9 354.938 1712.52 353.854 1711.79 353.092C1711.06 352.316 1710.02 351.928 1708.67 351.928ZM1727.98 361.178C1727.98 359.127 1728.23 357.494 1728.73 356.278C1729.23 355.062 1730.14 353.869 1731.45 352.697C1732.79 351.51 1733.67 350.551 1734.11 349.818C1734.55 349.071 1734.77 348.288 1734.77 347.467C1734.77 344.992 1733.63 343.754 1731.34 343.754C1730.26 343.754 1729.39 344.091 1728.73 344.765C1728.09 345.424 1727.75 346.339 1727.72 347.511H1721.35C1721.38 344.713 1722.28 342.523 1724.05 340.941C1725.84 339.359 1728.27 338.568 1731.34 338.568C1734.45 338.568 1736.86 339.323 1738.57 340.832C1740.29 342.326 1741.14 344.442 1741.14 347.182C1741.14 348.427 1740.87 349.606 1740.31 350.719C1739.75 351.818 1738.78 353.041 1737.39 354.389L1735.61 356.081C1734.49 357.15 1733.86 358.402 1733.7 359.838L1733.61 361.178H1727.98ZM1727.35 367.924C1727.35 366.942 1727.68 366.137 1728.33 365.507C1729.01 364.862 1729.87 364.54 1730.91 364.54C1731.95 364.54 1732.79 364.862 1733.45 365.507C1734.13 366.137 1734.46 366.942 1734.46 367.924C1734.46 368.891 1734.14 369.689 1733.48 370.319C1732.83 370.949 1731.97 371.264 1730.91 371.264C1729.84 371.264 1728.97 370.949 1728.31 370.319C1727.67 369.689 1727.35 368.891 1727.35 367.924Z" fill="black"/>
<rect x="1383" y="1007" width="371" height="68" rx="14" fill="black"/>
<path d="M1536.42 1052V1030.67H1542.72C1544.61 1030.67 1546.28 1031.09 1547.73 1031.93C1549.2 1032.77 1550.33 1033.96 1551.13 1035.51C1551.93 1037.05 1552.33 1038.82 1552.33 1040.81V1041.88C1552.33 1043.9 1551.92 1045.68 1551.11 1047.21C1550.31 1048.74 1549.17 1049.92 1547.67 1050.75C1546.19 1051.58 1544.48 1052 1542.56 1052H1536.42ZM1540.13 1033.66V1049.04H1542.54C1544.49 1049.04 1545.98 1048.44 1547.01 1047.22C1548.06 1046 1548.59 1044.26 1548.61 1041.98V1040.79C1548.61 1038.48 1548.11 1036.71 1547.1 1035.49C1546.09 1034.27 1544.63 1033.66 1542.72 1033.66H1540.13ZM1555.01 1043.93C1555.01 1042.38 1555.32 1040.98 1555.93 1039.74C1556.55 1038.49 1557.41 1037.53 1558.53 1036.87C1559.64 1036.19 1560.92 1035.86 1562.36 1035.86C1564.5 1035.86 1566.24 1036.55 1567.56 1037.92C1568.9 1039.3 1569.62 1041.13 1569.73 1043.4L1569.75 1044.24C1569.75 1045.8 1569.44 1047.2 1568.84 1048.43C1568.24 1049.66 1567.38 1050.61 1566.26 1051.28C1565.15 1051.96 1563.86 1052.29 1562.39 1052.29C1560.16 1052.29 1558.37 1051.55 1557.02 1050.07C1555.68 1048.57 1555.01 1046.58 1555.01 1044.1V1043.93ZM1558.57 1044.24C1558.57 1045.87 1558.91 1047.15 1559.58 1048.07C1560.25 1048.99 1561.19 1049.45 1562.39 1049.45C1563.59 1049.45 1564.53 1048.98 1565.19 1048.04C1565.87 1047.11 1566.2 1045.74 1566.2 1043.93C1566.2 1042.33 1565.86 1041.06 1565.16 1040.12C1564.48 1039.18 1563.55 1038.71 1562.36 1038.71C1561.2 1038.71 1560.28 1039.18 1559.6 1040.11C1558.91 1041.02 1558.57 1042.4 1558.57 1044.24ZM1576.06 1036.15L1576.16 1037.98C1577.33 1036.57 1578.87 1035.86 1580.78 1035.86C1584.08 1035.86 1585.76 1037.75 1585.82 1041.53V1052H1582.26V1041.73C1582.26 1040.73 1582.04 1039.98 1581.6 1039.5C1581.17 1039.02 1580.46 1038.77 1579.47 1038.77C1578.04 1038.77 1576.97 1039.42 1576.27 1040.72V1052H1572.71V1036.15H1576.06ZM1596.44 1052.29C1594.18 1052.29 1592.35 1051.58 1590.94 1050.17C1589.55 1048.74 1588.85 1046.85 1588.85 1044.49V1044.05C1588.85 1042.46 1589.15 1041.05 1589.76 1039.81C1590.37 1038.56 1591.23 1037.59 1592.33 1036.9C1593.44 1036.2 1594.67 1035.86 1596.03 1035.86C1598.18 1035.86 1599.85 1036.55 1601.02 1037.92C1602.2 1039.3 1602.79 1041.25 1602.79 1043.77V1045.2H1592.44C1592.54 1046.51 1592.98 1047.55 1593.74 1048.31C1594.51 1049.07 1595.48 1049.45 1596.64 1049.45C1598.27 1049.45 1599.6 1048.79 1600.63 1047.47L1602.54 1049.3C1601.91 1050.25 1601.06 1050.99 1600 1051.52C1598.94 1052.03 1597.75 1052.29 1596.44 1052.29ZM1596.01 1038.71C1595.04 1038.71 1594.24 1039.06 1593.64 1039.74C1593.04 1040.42 1592.66 1041.38 1592.5 1042.6H1599.28V1042.33C1599.2 1041.14 1598.88 1040.24 1598.33 1039.64C1597.77 1039.02 1597 1038.71 1596.01 1038.71Z" fill="white"/>
<path d="M1420 911H1719" stroke="#67C7A3" stroke-opacity="0.45" stroke-width="4" stroke-linecap="round"/>
<circle cx="1688.5" cy="912.5" r="8.5" fill="black"/>
<rect x="1660" y="884" width="57" height="57" rx="14" stroke="white" stroke-width="4"/>
<path d="M1505.5 671C1530.83 689.833 1589.1 719.2 1619.5 686" stroke="black" stroke-width="3" stroke-linecap="round" stroke-linejoin="round"/>
<path d="M1535 584C1535 599.569 1523.71 612 1510 612C1496.29 612 1485 599.569 1485 584C1485 568.431 1496.29 556 1510 556C1523.71 556 1535 568.431 1535 584Z" fill="white" stroke="black" stroke-width="2"/>
<path d="M1514 582C1514 584.761 1511.76 587 1509 587C1506.24 587 1504 584.761 1504 582C1504 579.239 1506.24 577 1509 577C1511.76 577 1514 579.239 1514 582Z" fill="black"/>
<path d="M1652 584C1652 599.569 1640.71 612 1627 612C1613.29 612 1602 599.569 1602 584C1602 568.431 1613.29 556 1627 556C1640.71 556 1652 568.431 1652 584Z" fill="white" stroke="black" stroke-width="2"/>
<path d="M1631 582C1631 584.761 1628.76 587 1626 587C1623.24 587 1621 584.761 1621 582C1621 579.239 1623.24 577 1626 577C1628.76 577 1631 579.239 1631 582Z" fill="black"/>
<path d="M1413 231.817L1410.99 229.803L1403 237.789L1395.01 229.803L1393 231.817L1400.99 239.803L1393 247.789L1395.01 249.803L1403 241.817L1410.99 249.803L1413 247.789L1405.01 239.803L1413 231.817Z" fill="black"/>
<path fill-rule="evenodd" clip-rule="evenodd" d="M1438 833C1438 831.343 1436.66 830 1435 830H1421C1419.34 830 1418 831.343 1418 833V843.515C1418 844.887 1419.11 846 1420.48 846C1420.8 846 1421.03 846.299 1420.95 846.606L1420.89 846.844C1420.25 849.34 1423.16 851.212 1425.17 849.59L1429.33 846.223C1429.51 846.079 1429.73 846 1429.96 846H1435C1436.66 846 1438 844.657 1438 843V833ZM1435 832C1435.55 832 1436 832.448 1436 833V843C1436 843.552 1435.55 844 1435 844H1429.96C1429.27 844 1428.6 844.236 1428.07 844.668L1423.91 848.035C1423.4 848.445 1422.67 847.972 1422.83 847.342L1422.89 847.104C1423.3 845.531 1422.11 844 1420.48 844C1420.22 844 1420 843.783 1420 843.515V833C1420 832.448 1420.45 832 1421 832H1435Z" fill="#05060F"/>
<path d="M1452.75 843.51H1447.98L1447.06 846H1445.95L1449.78 835.65H1450.96L1454.77 846H1453.66L1452.75 843.51ZM1452.43 842.64L1450.36 836.97L1448.29 842.64H1452.43ZM1455.98 841.89C1455.98 841.05 1456.15 840.315 1456.49 839.685C1456.83 839.045 1457.29 838.555 1457.88 838.215C1458.48 837.865 1459.16 837.69 1459.91 837.69C1460.63 837.69 1461.28 837.865 1461.86 838.215C1462.44 838.565 1462.86 839.02 1463.13 839.58V834.9H1464.18V846H1463.13V844.17C1462.88 844.74 1462.47 845.21 1461.9 845.58C1461.33 845.94 1460.66 846.12 1459.89 846.12C1459.14 846.12 1458.47 845.945 1457.87 845.595C1457.28 845.245 1456.81 844.75 1456.47 844.11C1456.14 843.47 1455.98 842.73 1455.98 841.89ZM1463.13 841.905C1463.13 841.245 1463 840.665 1462.73 840.165C1462.46 839.665 1462.09 839.28 1461.62 839.01C1461.16 838.74 1460.65 838.605 1460.09 838.605C1459.51 838.605 1458.99 838.735 1458.53 838.995C1458.07 839.255 1457.7 839.635 1457.43 840.135C1457.17 840.625 1457.04 841.21 1457.04 841.89C1457.04 842.56 1457.17 843.15 1457.43 843.66C1457.7 844.16 1458.07 844.545 1458.53 844.815C1458.99 845.075 1459.51 845.205 1460.09 845.205C1460.65 845.205 1461.16 845.07 1461.62 844.8C1462.09 844.53 1462.46 844.145 1462.73 843.645C1463 843.145 1463.13 842.565 1463.13 841.905ZM1466.1 841.89C1466.1 841.05 1466.27 840.315 1466.61 839.685C1466.95 839.045 1467.42 838.555 1468.01 838.215C1468.61 837.865 1469.28 837.69 1470.03 837.69C1470.75 837.69 1471.4 837.865 1471.98 838.215C1472.56 838.565 1472.99 839.02 1473.26 839.58V834.9H1474.31V846H1473.26V844.17C1473.01 844.74 1472.6 845.21 1472.03 845.58C1471.46 845.94 1470.79 846.12 1470.02 846.12C1469.27 846.12 1468.59 845.945 1467.99 845.595C1467.4 845.245 1466.94 844.75 1466.6 844.11C1466.27 843.47 1466.1 842.73 1466.1 841.89ZM1473.26 841.905C1473.26 841.245 1473.12 840.665 1472.85 840.165C1472.58 839.665 1472.21 839.28 1471.74 839.01C1471.28 838.74 1470.77 838.605 1470.21 838.605C1469.63 838.605 1469.11 838.735 1468.65 838.995C1468.19 839.255 1467.83 839.635 1467.56 840.135C1467.3 840.625 1467.17 841.21 1467.17 841.89C1467.17 842.56 1467.3 843.15 1467.56 843.66C1467.83 844.16 1468.19 844.545 1468.65 844.815C1469.11 845.075 1469.63 845.205 1470.21 845.205C1470.77 845.205 1471.28 845.07 1471.74 844.8C1472.21 844.53 1472.58 844.145 1472.85 843.645C1473.12 843.145 1473.26 842.565 1473.26 841.905ZM1480.34 841.89C1480.34 841.05 1480.51 840.315 1480.84 839.685C1481.18 839.045 1481.64 838.555 1482.23 838.215C1482.83 837.865 1483.51 837.69 1484.26 837.69C1485.04 837.69 1485.71 837.87 1486.27 838.23C1486.84 838.59 1487.25 839.05 1487.5 839.61V837.81H1488.55V846H1487.5V844.185C1487.24 844.745 1486.82 845.21 1486.25 845.58C1485.69 845.94 1485.02 846.12 1484.24 846.12C1483.5 846.12 1482.83 845.945 1482.23 845.595C1481.64 845.245 1481.18 844.75 1480.84 844.11C1480.51 843.47 1480.34 842.73 1480.34 841.89ZM1487.5 841.905C1487.5 841.245 1487.36 840.665 1487.09 840.165C1486.82 839.665 1486.45 839.28 1485.98 839.01C1485.52 838.74 1485.01 838.605 1484.45 838.605C1483.87 838.605 1483.35 838.735 1482.89 838.995C1482.43 839.255 1482.07 839.635 1481.8 840.135C1481.54 840.625 1481.41 841.21 1481.41 841.89C1481.41 842.56 1481.54 843.15 1481.8 843.66C1482.07 844.16 1482.43 844.545 1482.89 844.815C1483.35 845.075 1483.87 845.205 1484.45 845.205C1485.01 845.205 1485.52 845.07 1485.98 844.8C1486.45 844.53 1486.82 844.145 1487.09 843.645C1487.36 843.145 1487.5 842.565 1487.5 841.905ZM1494.58 841.905C1494.58 841.055 1494.75 840.315 1495.09 839.685C1495.43 839.045 1495.9 838.555 1496.5 838.215C1497.1 837.865 1497.78 837.69 1498.55 837.69C1499.56 837.69 1500.39 837.94 1501.04 838.44C1501.7 838.94 1502.13 839.62 1502.32 840.48H1501.19C1501.05 839.89 1500.75 839.43 1500.28 839.1C1499.82 838.76 1499.24 838.59 1498.55 838.59C1498 838.59 1497.51 838.715 1497.07 838.965C1496.63 839.215 1496.28 839.59 1496.02 840.09C1495.77 840.58 1495.64 841.185 1495.64 841.905C1495.64 842.625 1495.77 843.235 1496.02 843.735C1496.28 844.235 1496.63 844.61 1497.07 844.86C1497.51 845.11 1498 845.235 1498.55 845.235C1499.24 845.235 1499.82 845.07 1500.28 844.74C1500.75 844.4 1501.05 843.93 1501.19 843.33H1502.32C1502.13 844.17 1501.7 844.845 1501.04 845.355C1500.38 845.865 1499.55 846.12 1498.55 846.12C1497.78 846.12 1497.1 845.95 1496.5 845.61C1495.9 845.26 1495.43 844.77 1495.09 844.14C1494.75 843.5 1494.58 842.755 1494.58 841.905ZM1507.84 846.12C1507.07 846.12 1506.38 845.95 1505.76 845.61C1505.15 845.26 1504.66 844.77 1504.3 844.14C1503.95 843.5 1503.78 842.755 1503.78 841.905C1503.78 841.055 1503.96 840.315 1504.32 839.685C1504.68 839.045 1505.17 838.555 1505.79 838.215C1506.41 837.865 1507.1 837.69 1507.87 837.69C1508.64 837.69 1509.34 837.865 1509.96 838.215C1510.59 838.555 1511.08 839.045 1511.43 839.685C1511.79 840.315 1511.97 841.055 1511.97 841.905C1511.97 842.745 1511.79 843.485 1511.43 844.125C1511.07 844.765 1510.57 845.26 1509.94 845.61C1509.31 845.95 1508.61 846.12 1507.84 846.12ZM1507.84 845.205C1508.38 845.205 1508.88 845.085 1509.34 844.845C1509.8 844.595 1510.17 844.225 1510.45 843.735C1510.74 843.235 1510.89 842.625 1510.89 841.905C1510.89 841.185 1510.75 840.58 1510.47 840.09C1510.19 839.59 1509.82 839.22 1509.36 838.98C1508.9 838.73 1508.4 838.605 1507.86 838.605C1507.32 838.605 1506.82 838.73 1506.36 838.98C1505.9 839.22 1505.53 839.59 1505.25 840.09C1504.98 840.58 1504.84 841.185 1504.84 841.905C1504.84 842.625 1504.98 843.235 1505.25 843.735C1505.53 844.225 1505.89 844.595 1506.34 844.845C1506.8 845.085 1507.3 845.205 1507.84 845.205ZM1523.63 837.66C1524.59 837.66 1525.37 837.965 1525.97 838.575C1526.58 839.175 1526.89 840.05 1526.89 841.2V846H1525.85V841.32C1525.85 840.43 1525.64 839.75 1525.21 839.28C1524.78 838.81 1524.19 838.575 1523.45 838.575C1522.68 838.575 1522.07 838.83 1521.61 839.34C1521.15 839.85 1520.92 840.59 1520.92 841.56V846H1519.88V841.32C1519.88 840.43 1519.67 839.75 1519.24 839.28C1518.81 838.81 1518.22 838.575 1517.47 838.575C1516.7 838.575 1516.08 838.83 1515.62 839.34C1515.16 839.85 1514.93 840.59 1514.93 841.56V846H1513.88V837.81H1514.93V839.22C1515.19 838.71 1515.56 838.325 1516.04 838.065C1516.52 837.795 1517.06 837.66 1517.65 837.66C1518.36 837.66 1518.98 837.83 1519.51 838.17C1520.05 838.51 1520.44 839.01 1520.68 839.67C1520.9 839.02 1521.27 838.525 1521.8 838.185C1522.34 837.835 1522.95 837.66 1523.63 837.66ZM1538.97 837.66C1539.93 837.66 1540.71 837.965 1541.31 838.575C1541.92 839.175 1542.22 840.05 1542.22 841.2V846H1541.19V841.32C1541.19 840.43 1540.97 839.75 1540.54 839.28C1540.11 838.81 1539.53 838.575 1538.79 838.575C1538.02 838.575 1537.4 838.83 1536.94 839.34C1536.48 839.85 1536.25 840.59 1536.25 841.56V846H1535.22V841.32C1535.22 840.43 1535 839.75 1534.57 839.28C1534.14 838.81 1533.55 838.575 1532.8 838.575C1532.03 838.575 1531.42 838.83 1530.96 839.34C1530.5 839.85 1530.27 840.59 1530.27 841.56V846H1529.22V837.81H1530.27V839.22C1530.53 838.71 1530.9 838.325 1531.38 838.065C1531.86 837.795 1532.39 837.66 1532.98 837.66C1533.69 837.66 1534.31 837.83 1534.84 838.17C1535.38 838.51 1535.77 839.01 1536.01 839.67C1536.23 839.02 1536.61 838.525 1537.14 838.185C1537.68 837.835 1538.29 837.66 1538.97 837.66ZM1551.97 841.485C1551.97 841.845 1551.96 842.12 1551.94 842.31H1545.14C1545.17 842.93 1545.32 843.46 1545.59 843.9C1545.86 844.34 1546.22 844.675 1546.66 844.905C1547.1 845.125 1547.58 845.235 1548.1 845.235C1548.78 845.235 1549.35 845.07 1549.81 844.74C1550.28 844.41 1550.59 843.965 1550.74 843.405H1551.85C1551.65 844.205 1551.22 844.86 1550.56 845.37C1549.91 845.87 1549.09 846.12 1548.1 846.12C1547.33 846.12 1546.64 845.95 1546.03 845.61C1545.42 845.26 1544.94 844.77 1544.59 844.14C1544.25 843.5 1544.08 842.755 1544.08 841.905C1544.08 841.055 1544.25 840.31 1544.59 839.67C1544.93 839.03 1545.4 838.54 1546.01 838.2C1546.62 837.86 1547.32 837.69 1548.1 837.69C1548.88 837.69 1549.56 837.86 1550.14 838.2C1550.73 838.54 1551.18 839 1551.49 839.58C1551.81 840.15 1551.97 840.785 1551.97 841.485ZM1550.9 841.455C1550.91 840.845 1550.79 840.325 1550.53 839.895C1550.28 839.465 1549.93 839.14 1549.49 838.92C1549.05 838.7 1548.57 838.59 1548.05 838.59C1547.27 838.59 1546.61 838.84 1546.06 839.34C1545.51 839.84 1545.2 840.545 1545.14 841.455H1550.9ZM1557.73 837.66C1558.71 837.66 1559.51 837.965 1560.13 838.575C1560.75 839.175 1561.06 840.05 1561.06 841.2V846H1560.02V841.32C1560.02 840.43 1559.8 839.75 1559.35 839.28C1558.91 838.81 1558.3 838.575 1557.53 838.575C1556.74 838.575 1556.11 838.825 1555.64 839.325C1555.17 839.825 1554.94 840.56 1554.94 841.53V846H1553.89V837.81H1554.94V839.205C1555.2 838.705 1555.57 838.325 1556.06 838.065C1556.55 837.795 1557.11 837.66 1557.73 837.66ZM1564.74 838.695V843.78C1564.74 844.28 1564.84 844.625 1565.03 844.815C1565.22 845.005 1565.55 845.1 1566.03 845.1H1566.99V846H1565.87C1565.13 846 1564.58 845.83 1564.22 845.49C1563.86 845.14 1563.68 844.57 1563.68 843.78V838.695H1562.54V837.81H1563.68V835.755H1564.74V837.81H1566.99V838.695H1564.74Z" fill="black"/>
</svg>
