<svg width="180" height="147" viewBox="0 0 180 147" fill="none" xmlns="http://www.w3.org/2000/svg">
<g id="Property 1=ok">
<g id="ok-facel">
<path id="mouth" d="M26 126C59 133 103.5 139.5 142.5 139.5" stroke="black" stroke-width="3" stroke-linecap="round" stroke-linejoin="round"/>
<g id="right-eye">
<path id="eye-right" d="M162 31.5002C162.652 32.8511 162.653 32.8508 162.653 32.8505L162.655 32.8498L162.659 32.8479L162.67 32.8422L162.709 32.8229C162.742 32.8066 162.788 32.7834 162.847 32.7533C162.965 32.6931 163.132 32.6053 163.343 32.4902C163.764 32.26 164.358 31.9198 165.067 31.4713C166.483 30.576 168.375 29.2395 170.272 27.4731C174.043 23.962 178 18.5926 178 11.5002C178 10.7176 177.398 10.0665 176.618 10.0049L119.618 5.5049C119.074 5.46194 118.549 5.71799 118.248 6.17345C117.948 6.62891 117.918 7.21187 118.171 7.69555L119.5 7.00024C118.171 7.69555 118.171 7.6956 118.171 7.69567L118.171 7.69592L118.172 7.69679L118.173 7.70004L118.18 7.71247L118.205 7.76031L118.301 7.9425C118.384 8.10029 118.504 8.328 118.654 8.60878C118.952 9.17013 119.367 9.94462 119.833 10.797C120.756 12.4861 121.906 14.534 122.743 15.8188C129.063 25.5246 138.993 29.7932 147.186 31.6506C151.294 32.582 155.009 32.9184 157.698 33.0226C159.045 33.0747 160.138 33.0688 160.899 33.0496C161.28 33.0399 161.578 33.0269 161.784 33.0161C161.887 33.0107 161.967 33.0059 162.023 33.0023L162.088 32.9978L162.106 32.9965L162.112 32.9961L162.114 32.9959C162.115 32.9959 162.115 32.9958 162 31.5002ZM162 31.5002L162.652 32.8511C162.484 32.9324 162.302 32.9814 162.115 32.9958L162 31.5002Z" fill="white" stroke="black" stroke-width="3" stroke-linejoin="round"/>
<path id="bullet-right" d="M146.5 23.5002C146.5 26.5378 144.038 29.0002 141 29.0002C137.962 29.0002 135.5 26.5378 135.5 23.5002C135.5 20.4627 137.962 18.0002 141 18.0002C144.038 18.0002 146.5 20.4627 146.5 23.5002Z" fill="black"/>
</g>
<g id="left-eye">
<path id="eye-left" d="M17.5 31.5002C17.3848 32.9958 17.3854 32.9959 17.3861 32.9959L17.3881 32.9961L17.3939 32.9965L17.4124 32.9978L17.4774 33.0023C17.533 33.0059 17.6128 33.0107 17.7158 33.0161C17.9216 33.0269 18.2199 33.0399 18.6008 33.0496C19.3623 33.0688 20.4554 33.0747 21.8015 33.0226C24.4908 32.9184 28.2064 32.582 32.3142 31.6506C40.5066 29.7932 50.4369 25.5246 56.757 15.8188C57.5936 14.534 58.7441 12.4861 59.667 10.797C60.1327 9.94462 60.5478 9.17013 60.8464 8.60878C60.9958 8.328 61.1161 8.10029 61.1993 7.9425L61.2952 7.76031L61.3203 7.71247L61.3268 7.70004L61.3285 7.69679L61.3289 7.69592L61.3291 7.69567C61.3291 7.6956 61.3291 7.69555 60 7.00024L61.3291 7.69555C61.5821 7.21187 61.5524 6.62891 61.2516 6.17345C60.9507 5.71799 60.4261 5.46194 59.8819 5.5049L2.88195 10.0049C2.10173 10.0665 1.5 10.7176 1.5 11.5002C1.50002 18.5926 5.45667 23.962 9.22788 27.4731C11.1251 29.2395 13.0167 30.576 14.4328 31.4713C15.1423 31.9198 15.7364 32.26 16.1573 32.4902C16.3679 32.6053 16.5355 32.6931 16.6529 32.7533C16.7116 32.7834 16.7578 32.8066 16.7906 32.8229L16.8296 32.8422L16.8414 32.8479L16.8453 32.8498L16.8467 32.8505C16.8473 32.8508 16.8479 32.8511 17.5 31.5002ZM17.5 31.5002L17.3848 32.9958C17.1983 32.9814 17.0162 32.9324 16.8479 32.8511L17.5 31.5002Z" fill="white" stroke="black" stroke-width="3" stroke-linejoin="round"/>
<path id="bullet-left" d="M29.5 23.5002C29.5 26.5378 27.0376 29.0002 24 29.0002C20.9624 29.0002 18.5 26.5378 18.5 23.5002C18.5 20.4627 20.9624 18.0002 24 18.0002C27.0376 18.0002 29.5 20.4627 29.5 23.5002Z" fill="black"/>
</g>
</g>
</g>
</svg>
